<svg width="90" height="31" viewBox="0 0 90 31" fill="none" xmlns="http://www.w3.org/2000/svg">
<g clip-path="url(#clip0_327_1770)">
<rect width="90" height="31" rx="15.5" fill="#61F3C0"/>
<path d="M25.1406 16.436C25.0606 17.172 24.8006 17.824 24.3606 18.392C23.9286 18.952 23.3606 19.388 22.6566 19.7C21.9526 20.012 21.1486 20.168 20.2446 20.168C19.2366 20.168 18.3526 19.972 17.5926 19.58C16.8326 19.188 16.2406 18.644 15.8166 17.948C15.3926 17.244 15.1806 16.428 15.1806 15.5C15.1806 14.572 15.3926 13.76 15.8166 13.064C16.2406 12.36 16.8326 11.812 17.5926 11.42C18.3526 11.028 19.2366 10.832 20.2446 10.832C21.1486 10.832 21.9526 10.988 22.6566 11.3C23.3606 11.612 23.9286 12.048 24.3606 12.608C24.8006 13.168 25.0606 13.82 25.1406 14.564H23.5446C23.4566 14.084 23.2646 13.672 22.9686 13.328C22.6806 12.984 22.3046 12.72 21.8406 12.536C21.3766 12.344 20.8406 12.248 20.2326 12.248C19.5286 12.248 18.9166 12.38 18.3966 12.644C17.8846 12.908 17.4886 13.284 17.2086 13.772C16.9286 14.26 16.7886 14.836 16.7886 15.5C16.7886 16.164 16.9286 16.74 17.2086 17.228C17.4886 17.716 17.8846 18.092 18.3966 18.356C18.9166 18.62 19.5286 18.752 20.2326 18.752C20.8406 18.752 21.3766 18.66 21.8406 18.476C22.3046 18.292 22.6806 18.028 22.9686 17.684C23.2646 17.332 23.4566 16.916 23.5446 16.436H25.1406ZM30.1699 20.168C29.3459 20.168 28.6219 20.02 27.9979 19.724C27.3819 19.42 26.8979 19 26.5459 18.464C26.2019 17.928 26.0299 17.308 26.0299 16.604C26.0299 15.892 26.2019 15.272 26.5459 14.744C26.8979 14.208 27.3819 13.792 27.9979 13.496C28.6219 13.192 29.3459 13.04 30.1699 13.04C30.9939 13.04 31.7139 13.192 32.3299 13.496C32.9539 13.792 33.4379 14.208 33.7819 14.744C34.1339 15.272 34.3099 15.892 34.3099 16.604C34.3099 17.308 34.1339 17.928 33.7819 18.464C33.4379 19 32.9539 19.42 32.3299 19.724C31.7139 20.02 30.9939 20.168 30.1699 20.168ZM30.1699 18.944C30.6979 18.944 31.1499 18.848 31.5259 18.656C31.9099 18.464 32.2059 18.196 32.4139 17.852C32.6219 17.5 32.7259 17.084 32.7259 16.604C32.7259 16.124 32.6219 15.712 32.4139 15.368C32.2059 15.016 31.9099 14.744 31.5259 14.552C31.1499 14.36 30.6979 14.264 30.1699 14.264C29.6499 14.264 29.1979 14.36 28.8139 14.552C28.4299 14.744 28.1339 15.016 27.9259 15.368C27.7179 15.712 27.6139 16.124 27.6139 16.604C27.6139 17.084 27.7179 17.5 27.9259 17.852C28.1339 18.196 28.4299 18.464 28.8139 18.656C29.1979 18.848 29.6499 18.944 30.1699 18.944ZM38.746 20.168C38.026 20.168 37.394 20.072 36.85 19.88C36.314 19.688 35.89 19.412 35.578 19.052C35.274 18.692 35.106 18.264 35.074 17.768H36.586C36.65 18.16 36.866 18.46 37.234 18.668C37.61 18.868 38.114 18.968 38.746 18.968C39.354 18.968 39.83 18.888 40.174 18.728C40.518 18.56 40.69 18.304 40.69 17.96C40.69 17.68 40.546 17.472 40.258 17.336C39.978 17.2 39.53 17.132 38.914 17.132H37.57V16.052H38.878C39.43 16.052 39.838 15.968 40.102 15.8C40.374 15.632 40.51 15.424 40.51 15.176C40.51 14.872 40.35 14.64 40.03 14.48C39.71 14.32 39.29 14.24 38.77 14.24C38.194 14.24 37.726 14.332 37.366 14.516C37.006 14.7 36.794 14.976 36.73 15.344H35.218C35.258 14.912 35.422 14.524 35.71 14.18C36.006 13.828 36.418 13.552 36.946 13.352C37.474 13.144 38.102 13.04 38.83 13.04C39.494 13.04 40.07 13.124 40.558 13.292C41.046 13.46 41.422 13.692 41.686 13.988C41.958 14.276 42.094 14.608 42.094 14.984C42.094 15.288 41.998 15.568 41.806 15.824C41.622 16.08 41.33 16.284 40.93 16.436C40.538 16.588 40.03 16.664 39.406 16.664V16.46C40.318 16.428 41.026 16.552 41.53 16.832C42.034 17.104 42.286 17.512 42.286 18.056C42.286 18.464 42.146 18.828 41.866 19.148C41.594 19.468 41.194 19.72 40.666 19.904C40.138 20.08 39.498 20.168 38.746 20.168ZM52.3076 18.8V21.716H50.9516V20H44.1596V21.716H42.8036V18.8H44.5556L44.9876 18.824H49.9436L50.3276 18.8H52.3076ZM44.3156 13.208H51.0476V19.544H49.4876V13.688L50.2076 14.408H45.1316L45.8036 13.88C45.8436 14.232 45.8676 14.572 45.8756 14.9C45.8916 15.22 45.8996 15.52 45.8996 15.8C45.8996 16.968 45.7396 17.884 45.4196 18.548C45.1076 19.212 44.6676 19.544 44.0996 19.544L43.4636 19.004C44.1196 18.524 44.4476 17.356 44.4476 15.5C44.4476 15.14 44.4356 14.768 44.4116 14.384C44.3876 13.992 44.3556 13.6 44.3156 13.208ZM59.621 20L59.357 17.48L59.669 16.604L59.357 15.74L59.621 13.208H61.229L60.869 16.604L61.229 20H59.621ZM60.101 16.604C59.949 17.316 59.697 17.94 59.345 18.476C58.993 19.012 58.557 19.428 58.037 19.724C57.525 20.02 56.953 20.168 56.321 20.168C55.657 20.168 55.069 20.02 54.557 19.724C54.045 19.42 53.645 19 53.357 18.464C53.069 17.928 52.925 17.308 52.925 16.604C52.925 15.892 53.069 15.272 53.357 14.744C53.645 14.208 54.045 13.792 54.557 13.496C55.069 13.192 55.657 13.04 56.321 13.04C56.953 13.04 57.525 13.188 58.037 13.484C58.557 13.78 58.993 14.196 59.345 14.732C59.705 15.26 59.957 15.884 60.101 16.604ZM54.509 16.604C54.509 17.06 54.601 17.464 54.785 17.816C54.977 18.16 55.237 18.432 55.565 18.632C55.893 18.824 56.269 18.92 56.693 18.92C57.125 18.92 57.525 18.824 57.893 18.632C58.261 18.432 58.585 18.16 58.865 17.816C59.153 17.464 59.381 17.06 59.549 16.604C59.381 16.148 59.153 15.748 58.865 15.404C58.585 15.052 58.261 14.78 57.893 14.588C57.525 14.388 57.125 14.288 56.693 14.288C56.269 14.288 55.893 14.388 55.565 14.588C55.237 14.78 54.977 15.052 54.785 15.404C54.601 15.748 54.509 16.148 54.509 16.604ZM64.8783 13.748H66.4383V20H64.8783V13.748ZM62.0583 13.208H69.2583V14.432H62.0583V13.208ZM70.2421 20V13.208H71.8021V19.568L71.2501 18.848H74.1541C74.5781 18.848 74.9101 18.744 75.1501 18.536C75.3901 18.32 75.5101 18.028 75.5101 17.66C75.5101 17.284 75.3901 16.992 75.1501 16.784C74.9101 16.568 74.5781 16.46 74.1541 16.46H71.2981V15.344H74.3581C74.9101 15.344 75.3901 15.444 75.7981 15.644C76.2061 15.836 76.5221 16.108 76.7461 16.46C76.9781 16.804 77.0941 17.208 77.0941 17.672C77.0941 18.136 76.9781 18.544 76.7461 18.896C76.5221 19.248 76.2061 19.52 75.7981 19.712C75.3901 19.904 74.9141 20 74.3701 20H70.2421Z" fill="black"/>
</g>
<defs>
<clipPath id="clip0_327_1770">
<rect width="90" height="31" rx="15.5" fill="white"/>
</clipPath>
</defs>
</svg>
