<svg width="151" height="41" viewBox="0 0 151 41" fill="none" xmlns="http://www.w3.org/2000/svg">
<rect width="151" height="41" rx="18" fill="#FF8989"/>
<path d="M40.528 20.56L40.788 19.98C41.9747 19.9933 42.9414 20.1733 43.688 20.52C44.448 20.8667 45.0014 21.3333 45.348 21.92C45.708 22.5067 45.888 23.1667 45.888 23.9C45.888 24.7 45.6947 25.4067 45.308 26.02C44.9347 26.6333 44.3814 27.12 43.648 27.48C42.9147 27.8267 42.0014 28 40.908 28H30.908L32.088 20.3L30.908 13H40.548C41.9347 13 43.0014 13.3267 43.748 13.98C44.508 14.62 44.888 15.5067 44.888 16.64C44.888 17.24 44.7414 17.8267 44.448 18.4C44.168 18.96 43.708 19.44 43.068 19.84C42.4414 20.2267 41.5947 20.4667 40.528 20.56ZM33.568 27.26L32.548 25.88H40.608C41.4347 25.88 42.0747 25.6933 42.528 25.32C42.9947 24.9333 43.228 24.3867 43.228 23.68C43.228 22.9333 42.9547 22.3533 42.408 21.94C41.8747 21.5267 41.0814 21.32 40.028 21.32H33.528V19.28H39.768C40.4747 19.28 41.0614 19.0867 41.528 18.7C41.9947 18.3 42.228 17.7333 42.228 17C42.228 16.4533 42.0347 16.0067 41.648 15.66C41.2614 15.3 40.7014 15.12 39.968 15.12H32.548L33.568 13.74L34.628 20.3L33.568 27.26ZM48.3616 28V13H51.0016V27.04L49.8216 25.86H56.1016C57.0216 25.86 57.7483 25.6267 58.2816 25.16C58.815 24.68 59.0816 24.0467 59.0816 23.26C59.0816 22.46 58.815 21.8267 58.2816 21.36C57.7483 20.88 57.0216 20.64 56.1016 20.64H49.5616V18.5H56.2216C57.355 18.5 58.335 18.7 59.1616 19.1C59.9883 19.5 60.6283 20.06 61.0816 20.78C61.535 21.4867 61.7616 22.3133 61.7616 23.26C61.7616 24.1933 61.535 25.02 61.0816 25.74C60.6283 26.4467 59.9883 27 59.1616 27.4C58.335 27.8 57.355 28 56.2216 28H48.3616ZM63.4016 13H66.0416V28H63.4016V13ZM69.3968 28V13H71.9568V26.76L71.0568 26.6L81.5168 13H84.9568V28H82.3968V14.12L83.2968 14.28L72.7568 28H69.3968ZM72.7168 8.7H74.8768C75.0235 9.20667 75.2768 9.6 75.6368 9.88C76.0101 10.1467 76.4835 10.28 77.0568 10.28C77.6435 10.28 78.1168 10.1467 78.4768 9.88C78.8368 9.6 79.0901 9.20667 79.2368 8.7H81.3968C81.1701 9.76667 80.6701 10.5667 79.8968 11.1C79.1235 11.62 78.1768 11.88 77.0568 11.88C75.9368 11.88 74.9901 11.62 74.2168 11.1C73.4435 10.5667 72.9435 9.76667 72.7168 8.7ZM93.1626 14.22H95.8026V28H93.1626V14.22ZM86.9626 13H102.003V15.32H86.9626V13ZM104.006 28V13H106.566V26.76L105.666 26.6L116.126 13H119.566V28H117.006V14.12L117.906 14.28L107.366 28H104.006Z" fill="black"/>
</svg>
