<svg width="213" height="753" viewBox="0 0 213 753" fill="none" xmlns="http://www.w3.org/2000/svg">
<mask id="path-1-outside-1_240_80" maskUnits="userSpaceOnUse" x="-0.0998868" y="-0.983534" width="213" height="754" fill="black">
<rect fill="white" x="-0.0998868" y="-0.983534" width="213" height="754"/>
<path d="M185.8 673.377C185.8 663.777 183.7 655.277 179.5 647.877C175.1 640.277 169.1 634.277 161.5 629.877C153.9 625.477 145.2 623.277 135.4 623.277C125.6 623.277 117 625.477 109.6 629.877C102.2 634.277 96.4001 640.277 92.2001 647.877C87.8001 655.277 85.6001 663.777 85.6001 673.377C85.6001 682.977 87.7001 691.577 91.9001 699.177C96.1001 706.577 102 712.477 109.6 716.877C117 721.277 125.6 723.477 135.4 723.477C145.2 723.477 153.9 721.277 161.5 716.877C169.1 712.477 175.1 706.577 179.5 699.177C183.7 691.577 185.8 682.977 185.8 673.377ZM211.9 673.377C211.9 688.177 208.6 701.477 202 713.277C195.2 725.077 186 734.377 174.4 741.177C162.8 747.977 149.8 751.377 135.4 751.377C121 751.377 108.1 747.977 96.7001 741.177C85.1001 734.377 76.0001 725.077 69.4001 713.277C62.8001 701.477 59.5001 688.177 59.5001 673.377C59.5001 658.577 62.8001 645.277 69.4001 633.477C76.0001 621.677 85.1001 612.377 96.7001 605.577C108.1 598.777 121 595.377 135.4 595.377C150 595.377 163.1 598.777 174.7 605.577C186.1 612.377 195.2 621.677 202 633.477C208.6 645.277 211.9 658.577 211.9 673.377ZM62.5001 541.682L89.2001 541.682L93.1001 541.082L208.9 541.082L208.9 568.082L62.5001 568.082L62.5001 541.682ZM62.5001 470.282L89.2001 470.282L89.2001 497.582C89.2001 511.182 93.0001 521.882 100.6 529.682C108.2 537.282 119 541.082 133 541.082L133 560.282C119.8 560.282 107.9 557.582 97.3001 552.182C86.5001 546.782 78.0001 539.082 71.8001 529.082C65.6001 519.082 62.5001 507.182 62.5001 493.382L62.5001 470.282ZM62.5001 419.5L208.9 419.5L208.9 446.5L62.5001 446.5L62.5001 419.5ZM42.7001 433C42.7001 438.4 40.9001 442.9 37.3001 446.5C33.7001 450.1 29.2001 451.9 23.8001 451.9C18.6001 451.9 14.2001 450.1 10.6001 446.5C7.00013 442.9 5.20013 438.4 5.20013 433C5.20013 427.8 7.00013 423.4 10.6001 419.8C14.2001 416.2 18.6001 414.4 23.8001 414.4C29.2001 414.4 33.7001 416.2 37.3001 419.8C40.9001 423.4 42.7001 427.8 42.7001 433ZM185.8 314.198C185.8 304.598 183.7 296.098 179.5 288.698C175.1 281.098 169.1 275.098 161.5 270.698C153.9 266.298 145.2 264.098 135.4 264.098C125.6 264.098 117 266.298 109.6 270.698C102.2 275.098 96.4001 281.098 92.2001 288.698C87.8001 296.098 85.6001 304.598 85.6001 314.198C85.6001 323.798 87.7001 332.398 91.9001 339.998C96.1001 347.398 102 353.298 109.6 357.698C117 362.098 125.6 364.298 135.4 364.298C145.2 364.298 153.9 362.098 161.5 357.698C169.1 353.298 175.1 347.398 179.5 339.998C183.7 332.398 185.8 323.798 185.8 314.198ZM211.9 314.198C211.9 328.998 208.6 342.298 202 354.098C195.2 365.898 186 375.198 174.4 381.998C162.8 388.798 149.8 392.198 135.4 392.198C121 392.198 108.1 388.798 96.7001 381.998C85.1001 375.198 76.0001 365.898 69.4001 354.098C62.8001 342.298 59.5001 328.998 59.5001 314.198C59.5001 299.398 62.8001 286.098 69.4001 274.298C76.0001 262.498 85.1001 253.198 96.7001 246.398C108.1 239.598 121 236.198 135.4 236.198C150 236.198 163.1 239.598 174.7 246.398C186.1 253.198 195.2 262.498 202 274.298C208.6 286.098 211.9 299.398 211.9 314.198ZM1.00012 181.902L208.9 181.902L208.9 208.902L1.00012 208.902L1.00012 181.902ZM135.4 27.7001C118.8 27.7001 106.2 32.4001 97.6001 41.8001C88.8001 51.2001 84.4001 63.0001 84.4001 77.2001C84.4001 86.8001 86.4001 95.4001 90.4001 103C94.2001 110.6 99.9001 116.6 107.5 121C115.1 125.4 124.4 127.6 135.4 127.6C146.6 127.6 156.1 125.4 163.9 121C171.5 116.6 177.3 110.6 181.3 103C185.1 95.2001 187 86.5001 187 76.9001C187 69.5001 185.8 62.5001 183.4 55.9001C180.8 49.3001 176.8 43.5001 171.4 38.5001C166 33.3001 159 29.5001 150.4 27.1001L161.2 1.90006C173.2 5.90006 183 11.8001 190.6 19.6001C198 27.2001 203.4 36.0001 206.8 46.0001C210.2 55.8001 211.9 66.1001 211.9 76.9001C211.9 92.3001 208.6 105.9 202 117.7C195.4 129.3 186.4 138.4 175 145C163.4 151.4 150.2 154.6 135.4 154.6C120.6 154.6 107.5 151.2 96.1001 144.4C84.7001 137.6 75.8001 128.4 69.4001 116.8C62.8001 105 59.5001 91.8001 59.5001 77.2001C59.5001 62.6001 62.7001 49.6001 69.1001 38.2001C75.5001 26.8001 84.4001 17.8001 95.8001 11.2001C107.2 4.40005 120.4 1.00006 135.4 1.00005C137 1.00005 138.8 1.10005 140.8 1.30005C142.6 1.30005 144.4 1.40005 146.2 1.60005L146.2 16.3001L135.4 27.7001ZM146.2 139.3L123.1 138.4L123.1 6.40006L146.2 6.40006L146.2 139.3Z"/>
</mask>
<path d="M185.8 673.377C185.8 663.777 183.7 655.277 179.5 647.877C175.1 640.277 169.1 634.277 161.5 629.877C153.9 625.477 145.2 623.277 135.4 623.277C125.6 623.277 117 625.477 109.6 629.877C102.2 634.277 96.4001 640.277 92.2001 647.877C87.8001 655.277 85.6001 663.777 85.6001 673.377C85.6001 682.977 87.7001 691.577 91.9001 699.177C96.1001 706.577 102 712.477 109.6 716.877C117 721.277 125.6 723.477 135.4 723.477C145.2 723.477 153.9 721.277 161.5 716.877C169.1 712.477 175.1 706.577 179.5 699.177C183.7 691.577 185.8 682.977 185.8 673.377ZM211.9 673.377C211.9 688.177 208.6 701.477 202 713.277C195.2 725.077 186 734.377 174.4 741.177C162.8 747.977 149.8 751.377 135.4 751.377C121 751.377 108.1 747.977 96.7001 741.177C85.1001 734.377 76.0001 725.077 69.4001 713.277C62.8001 701.477 59.5001 688.177 59.5001 673.377C59.5001 658.577 62.8001 645.277 69.4001 633.477C76.0001 621.677 85.1001 612.377 96.7001 605.577C108.1 598.777 121 595.377 135.4 595.377C150 595.377 163.1 598.777 174.7 605.577C186.1 612.377 195.2 621.677 202 633.477C208.6 645.277 211.9 658.577 211.9 673.377ZM62.5001 541.682L89.2001 541.682L93.1001 541.082L208.9 541.082L208.9 568.082L62.5001 568.082L62.5001 541.682ZM62.5001 470.282L89.2001 470.282L89.2001 497.582C89.2001 511.182 93.0001 521.882 100.6 529.682C108.2 537.282 119 541.082 133 541.082L133 560.282C119.8 560.282 107.9 557.582 97.3001 552.182C86.5001 546.782 78.0001 539.082 71.8001 529.082C65.6001 519.082 62.5001 507.182 62.5001 493.382L62.5001 470.282ZM62.5001 419.5L208.9 419.5L208.9 446.5L62.5001 446.5L62.5001 419.5ZM42.7001 433C42.7001 438.4 40.9001 442.9 37.3001 446.5C33.7001 450.1 29.2001 451.9 23.8001 451.9C18.6001 451.9 14.2001 450.1 10.6001 446.5C7.00013 442.9 5.20013 438.4 5.20013 433C5.20013 427.8 7.00013 423.4 10.6001 419.8C14.2001 416.2 18.6001 414.4 23.8001 414.4C29.2001 414.4 33.7001 416.2 37.3001 419.8C40.9001 423.4 42.7001 427.8 42.7001 433ZM185.8 314.198C185.8 304.598 183.7 296.098 179.5 288.698C175.1 281.098 169.1 275.098 161.5 270.698C153.9 266.298 145.2 264.098 135.4 264.098C125.6 264.098 117 266.298 109.6 270.698C102.2 275.098 96.4001 281.098 92.2001 288.698C87.8001 296.098 85.6001 304.598 85.6001 314.198C85.6001 323.798 87.7001 332.398 91.9001 339.998C96.1001 347.398 102 353.298 109.6 357.698C117 362.098 125.6 364.298 135.4 364.298C145.2 364.298 153.9 362.098 161.5 357.698C169.1 353.298 175.1 347.398 179.5 339.998C183.7 332.398 185.8 323.798 185.8 314.198ZM211.9 314.198C211.9 328.998 208.6 342.298 202 354.098C195.2 365.898 186 375.198 174.4 381.998C162.8 388.798 149.8 392.198 135.4 392.198C121 392.198 108.1 388.798 96.7001 381.998C85.1001 375.198 76.0001 365.898 69.4001 354.098C62.8001 342.298 59.5001 328.998 59.5001 314.198C59.5001 299.398 62.8001 286.098 69.4001 274.298C76.0001 262.498 85.1001 253.198 96.7001 246.398C108.1 239.598 121 236.198 135.4 236.198C150 236.198 163.1 239.598 174.7 246.398C186.1 253.198 195.2 262.498 202 274.298C208.6 286.098 211.9 299.398 211.9 314.198ZM1.00012 181.902L208.9 181.902L208.9 208.902L1.00012 208.902L1.00012 181.902ZM135.4 27.7001C118.8 27.7001 106.2 32.4001 97.6001 41.8001C88.8001 51.2001 84.4001 63.0001 84.4001 77.2001C84.4001 86.8001 86.4001 95.4001 90.4001 103C94.2001 110.6 99.9001 116.6 107.5 121C115.1 125.4 124.4 127.6 135.4 127.6C146.6 127.6 156.1 125.4 163.9 121C171.5 116.6 177.3 110.6 181.3 103C185.1 95.2001 187 86.5001 187 76.9001C187 69.5001 185.8 62.5001 183.4 55.9001C180.8 49.3001 176.8 43.5001 171.4 38.5001C166 33.3001 159 29.5001 150.4 27.1001L161.2 1.90006C173.2 5.90006 183 11.8001 190.6 19.6001C198 27.2001 203.4 36.0001 206.8 46.0001C210.2 55.8001 211.9 66.1001 211.9 76.9001C211.9 92.3001 208.6 105.9 202 117.7C195.4 129.3 186.4 138.4 175 145C163.4 151.4 150.2 154.6 135.4 154.6C120.6 154.6 107.5 151.2 96.1001 144.4C84.7001 137.6 75.8001 128.4 69.4001 116.8C62.8001 105 59.5001 91.8001 59.5001 77.2001C59.5001 62.6001 62.7001 49.6001 69.1001 38.2001C75.5001 26.8001 84.4001 17.8001 95.8001 11.2001C107.2 4.40005 120.4 1.00006 135.4 1.00005C137 1.00005 138.8 1.10005 140.8 1.30005C142.6 1.30005 144.4 1.40005 146.2 1.60005L146.2 16.3001L135.4 27.7001ZM146.2 139.3L123.1 138.4L123.1 6.40006L146.2 6.40006L146.2 139.3Z" fill="white"/>
<path d="M179.5 647.877L180.37 647.384L180.366 647.376L179.5 647.877ZM161.5 629.877L160.999 630.743L160.999 630.743L161.5 629.877ZM109.6 629.877L110.111 630.737L110.111 630.737L109.6 629.877ZM92.2001 647.877L93.0597 648.388L93.0677 648.375L93.0754 648.361L92.2001 647.877ZM91.9001 699.177L91.0248 699.661L91.0305 699.671L91.9001 699.177ZM109.6 716.877L110.111 716.018L110.101 716.012L109.6 716.877ZM161.5 716.877L162.001 717.743L162.001 717.743L161.5 716.877ZM179.5 699.177L180.36 699.688L180.368 699.675L180.375 699.661L179.5 699.177ZM202 713.277L202.867 713.777L202.873 713.766L202 713.277ZM174.4 741.177L174.906 742.04L174.906 742.04L174.4 741.177ZM96.7001 741.177L97.2124 740.319L97.2059 740.315L96.7001 741.177ZM69.4001 713.277L68.5274 713.766L68.5274 713.766L69.4001 713.277ZM69.4001 633.477L68.5274 632.989L68.5274 632.989L69.4001 633.477ZM96.7001 605.577L97.2059 606.44L97.2124 606.436L96.7001 605.577ZM174.7 605.577L175.212 604.719L175.206 604.715L174.7 605.577ZM202 633.477L202.873 632.989L202.867 632.978L202 633.477ZM185.8 673.377L186.8 673.377C186.8 663.627 184.666 654.953 180.37 647.384L179.5 647.877L178.63 648.371C182.735 655.602 184.8 663.928 184.8 673.377L185.8 673.377ZM179.5 647.877L180.366 647.376C175.878 639.625 169.752 633.5 162.001 629.012L161.5 629.877L160.999 630.743C168.448 635.055 174.322 640.93 178.635 648.378L179.5 647.877ZM161.5 629.877L162.001 629.012C154.232 624.514 145.355 622.277 135.4 622.277L135.4 623.277L135.4 624.277C145.045 624.277 153.568 626.441 160.999 630.743L161.5 629.877ZM135.4 623.277L135.4 622.277C125.446 622.277 116.664 624.514 109.089 629.018L109.6 629.877L110.111 630.737C117.336 626.441 125.755 624.277 135.4 624.277L135.4 623.277ZM109.6 629.877L109.089 629.018C101.535 633.509 95.61 639.64 91.3249 647.394L92.2001 647.877L93.0754 648.361C97.1903 640.915 102.865 635.045 110.111 630.737L109.6 629.877ZM92.2001 647.877L91.3406 647.366C86.8384 654.938 84.6001 663.619 84.6001 673.377L85.6001 673.377L86.6001 673.377C86.6001 663.936 88.7619 655.617 93.0597 648.388L92.2001 647.877ZM85.6001 673.377L84.6001 673.377C84.6001 683.128 86.7347 691.898 91.0249 699.661L91.9001 699.177L92.7754 698.694C88.6656 691.257 86.6001 682.826 86.6001 673.377L85.6001 673.377ZM91.9001 699.177L91.0305 699.671C95.321 707.231 101.351 713.257 109.099 717.743L109.6 716.877L110.101 716.012C102.65 711.698 96.8792 705.924 92.7698 698.684L91.9001 699.177ZM109.6 716.877L109.089 717.737C116.664 722.241 125.446 724.477 135.4 724.477L135.4 723.477L135.4 722.477C125.755 722.477 117.336 720.314 110.111 716.018L109.6 716.877ZM135.4 723.477L135.4 724.477C145.355 724.477 154.232 722.241 162.001 717.743L161.5 716.877L160.999 716.012C153.568 720.314 145.045 722.477 135.4 722.477L135.4 723.477ZM161.5 716.877L162.001 717.743C169.746 713.259 175.871 707.238 180.36 699.688L179.5 699.177L178.641 698.666C174.33 705.916 168.454 711.696 160.999 716.012L161.5 716.877ZM179.5 699.177L180.375 699.661C184.666 691.898 186.8 683.128 186.8 673.377L185.8 673.377L184.8 673.377C184.8 682.826 182.735 691.257 178.625 698.694L179.5 699.177ZM211.9 673.377L210.9 673.377C210.9 688.023 207.636 701.152 201.127 712.789L202 713.277L202.873 713.766C209.564 701.803 212.9 688.332 212.9 673.377L211.9 673.377ZM202 713.277L201.134 712.778C194.419 724.43 185.343 733.604 173.894 740.315L174.4 741.177L174.906 742.04C186.658 735.151 195.981 725.725 202.867 713.777L202 713.277ZM174.4 741.177L173.894 740.315C162.459 747.018 149.635 750.377 135.4 750.377L135.4 751.377L135.4 752.377C149.965 752.377 163.142 748.936 174.906 742.04L174.4 741.177ZM135.4 751.377L135.4 750.377C121.165 750.377 108.444 747.018 97.2124 740.319L96.7001 741.177L96.1879 742.036C107.756 748.936 120.836 752.377 135.4 752.377L135.4 751.377ZM96.7001 741.177L97.2059 740.315C85.7602 733.605 76.7866 724.435 70.2729 712.789L69.4001 713.277L68.5274 713.766C75.2137 725.72 84.44 735.15 96.1944 742.04L96.7001 741.177ZM69.4001 713.277L70.2729 712.789C63.7641 701.152 60.5001 688.023 60.5001 673.377L59.5001 673.377L58.5001 673.377C58.5001 688.332 61.8362 701.803 68.5274 713.766L69.4001 713.277ZM59.5001 673.377L60.5001 673.377C60.5001 658.732 63.7641 645.603 70.2729 633.966L69.4001 633.477L68.5274 632.989C61.8362 644.952 58.5001 658.423 58.5001 673.377L59.5001 673.377ZM69.4001 633.477L70.2729 633.966C76.7865 622.32 85.7602 613.15 97.2059 606.44L96.7001 605.577L96.1944 604.715C84.44 611.605 75.2137 621.035 68.5274 632.989L69.4001 633.477ZM96.7001 605.577L97.2124 606.436C108.444 599.736 121.165 596.377 135.4 596.377L135.4 595.377L135.4 594.377C120.836 594.377 107.756 597.818 96.1879 604.719L96.7001 605.577ZM135.4 595.377L135.4 596.377C149.838 596.377 162.761 599.738 174.194 606.44L174.7 605.577L175.206 604.715C163.439 597.817 150.162 594.377 135.4 594.377L135.4 595.377ZM174.7 605.577L174.188 606.436C185.437 613.146 194.417 622.321 201.134 633.977L202 633.477L202.867 632.978C195.984 621.034 186.763 611.609 175.212 604.719L174.7 605.577ZM202 633.477L201.127 633.966C207.636 645.603 210.9 658.732 210.9 673.377L211.9 673.377L212.9 673.377C212.9 658.423 209.564 644.952 202.873 632.989L202 633.477ZM62.5001 541.682L62.5001 540.682L61.5001 540.682L61.5001 541.682L62.5001 541.682ZM89.2001 541.682L89.2001 542.682L89.2766 542.682L89.3522 542.67L89.2001 541.682ZM93.1001 541.082L93.1001 540.082L93.0237 540.082L92.9481 540.094L93.1001 541.082ZM208.9 541.082L209.9 541.082L209.9 540.082L208.9 540.082L208.9 541.082ZM208.9 568.082L208.9 569.082L209.9 569.082L209.9 568.082L208.9 568.082ZM62.5001 568.082L61.5001 568.082L61.5001 569.082L62.5001 569.082L62.5001 568.082ZM62.5001 470.282L62.5001 469.282L61.5001 469.282L61.5001 470.282L62.5001 470.282ZM89.2001 470.282L90.2001 470.282L90.2001 469.282L89.2001 469.282L89.2001 470.282ZM100.6 529.682L99.8838 530.38L99.893 530.389L100.6 529.682ZM133 541.082L134 541.082L134 540.082L133 540.082L133 541.082ZM133 560.282L133 561.282L134 561.282L134 560.282L133 560.282ZM97.3001 552.182L97.7541 551.291L97.7473 551.288L97.3001 552.182ZM71.8001 529.082L72.65 528.555L72.65 528.555L71.8001 529.082ZM62.5001 541.682L62.5001 542.682L89.2001 542.682L89.2001 541.682L89.2001 540.682L62.5001 540.682L62.5001 541.682ZM89.2001 541.682L89.3522 542.67L93.2522 542.07L93.1001 541.082L92.9481 540.094L89.0481 540.694L89.2001 541.682ZM93.1001 541.082L93.1001 542.082L208.9 542.082L208.9 541.082L208.9 540.082L93.1001 540.082L93.1001 541.082ZM208.9 541.082L207.9 541.082L207.9 568.082L208.9 568.082L209.9 568.082L209.9 541.082L208.9 541.082ZM208.9 568.082L208.9 567.082L62.5001 567.082L62.5001 568.082L62.5001 569.082L208.9 569.082L208.9 568.082ZM62.5001 568.082L63.5001 568.082L63.5001 541.682L62.5001 541.682L61.5001 541.682L61.5001 568.082L62.5001 568.082ZM62.5001 470.282L62.5001 471.282L89.2001 471.282L89.2001 470.282L89.2001 469.282L62.5001 469.282L62.5001 470.282ZM89.2001 470.282L88.2001 470.282L88.2001 497.582L89.2001 497.582L90.2001 497.582L90.2001 470.282L89.2001 470.282ZM89.2001 497.582L88.2001 497.582C88.2001 511.375 92.0593 522.349 99.8839 530.38L100.6 529.682L101.316 528.984C93.941 521.415 90.2001 510.99 90.2001 497.582L89.2001 497.582ZM100.6 529.682L99.893 530.389C107.732 538.229 118.819 542.082 133 542.082L133 541.082L133 540.082C119.182 540.082 108.668 536.336 101.307 528.975L100.6 529.682ZM133 541.082L132 541.082L132 560.282L133 560.282L134 560.282L134 541.082L133 541.082ZM133 560.282L133 559.282C119.94 559.282 108.199 556.612 97.7541 551.291L97.3001 552.182L96.8462 553.073C107.602 558.552 119.66 561.282 133 561.282L133 560.282ZM97.3001 552.182L97.7473 551.288C87.1084 545.968 78.7498 538.393 72.65 528.555L71.8001 529.082L70.9502 529.609C77.2505 539.771 85.8918 547.596 96.8529 553.077L97.3001 552.182ZM71.8001 529.082L72.65 528.555C66.564 518.739 63.5001 507.029 63.5001 493.382L62.5001 493.382L61.5001 493.382C61.5001 507.336 64.6362 519.425 70.9502 529.609L71.8001 529.082ZM62.5001 493.382L63.5001 493.382L63.5001 470.282L62.5001 470.282L61.5001 470.282L61.5001 493.382L62.5001 493.382ZM62.5001 419.5L62.5001 418.5L61.5001 418.5L61.5001 419.5L62.5001 419.5ZM208.9 419.5L209.9 419.5L209.9 418.5L208.9 418.5L208.9 419.5ZM208.9 446.5L208.9 447.5L209.9 447.5L209.9 446.5L208.9 446.5ZM62.5001 446.5L61.5001 446.5L61.5001 447.5L62.5001 447.5L62.5001 446.5ZM10.6001 419.8L11.3072 420.507L11.3072 420.507L10.6001 419.8ZM37.3001 419.8L36.593 420.507L36.593 420.507L37.3001 419.8ZM62.5001 419.5L62.5001 420.5L208.9 420.5L208.9 419.5L208.9 418.5L62.5001 418.5L62.5001 419.5ZM208.9 419.5L207.9 419.5L207.9 446.5L208.9 446.5L209.9 446.5L209.9 419.5L208.9 419.5ZM208.9 446.5L208.9 445.5L62.5001 445.5L62.5001 446.5L62.5001 447.5L208.9 447.5L208.9 446.5ZM62.5001 446.5L63.5001 446.5L63.5001 419.5L62.5001 419.5L61.5001 419.5L61.5001 446.5L62.5001 446.5ZM42.7001 433L41.7001 433C41.7001 438.153 39.9932 442.393 36.593 445.793L37.3001 446.5L38.0072 447.207C41.807 443.407 43.7001 438.647 43.7001 433L42.7001 433ZM37.3001 446.5L36.593 445.793C33.1928 449.193 28.9528 450.9 23.8001 450.9L23.8001 451.9L23.8001 452.9C29.4475 452.9 34.2074 451.007 38.0072 447.207L37.3001 446.5ZM23.8001 451.9L23.8001 450.9C18.859 450.9 14.7153 449.201 11.3072 445.793L10.6001 446.5L9.89302 447.207C13.685 450.999 18.3413 452.9 23.8001 452.9L23.8001 451.9ZM10.6001 446.5L11.3072 445.793C7.90703 442.393 6.20013 438.153 6.20013 433L5.20013 433L4.20013 433C4.20013 438.647 6.09323 443.407 9.89302 447.207L10.6001 446.5ZM5.20013 433L6.20013 433C6.20013 428.059 7.89922 423.915 11.3072 420.507L10.6001 419.8L9.89302 419.093C6.10104 422.885 4.20013 427.541 4.20013 433L5.20013 433ZM10.6001 419.8L11.3072 420.507C14.7153 417.099 18.859 415.4 23.8001 415.4L23.8001 414.4L23.8001 413.4C18.3413 413.4 13.685 415.301 9.89302 419.093L10.6001 419.8ZM23.8001 414.4L23.8001 415.4C28.9528 415.4 33.1928 417.107 36.593 420.507L37.3001 419.8L38.0072 419.093C34.2074 415.293 29.4475 413.4 23.8001 413.4L23.8001 414.4ZM37.3001 419.8L36.593 420.507C40.001 423.915 41.7001 428.059 41.7001 433L42.7001 433L43.7001 433C43.7001 427.541 41.7992 422.885 38.0072 419.093L37.3001 419.8ZM179.5 288.698L180.37 288.204L180.366 288.197L179.5 288.698ZM161.5 270.698L160.999 271.563L160.999 271.563L161.5 270.698ZM109.6 270.698L110.111 271.557L110.111 271.557L109.6 270.698ZM92.2001 288.698L93.0597 289.209L93.0677 289.195L93.0754 289.181L92.2001 288.698ZM91.9001 339.998L91.0248 340.481L91.0304 340.491L91.9001 339.998ZM109.6 357.698L110.111 356.838L110.101 356.832L109.6 357.698ZM161.5 357.698L162.001 358.563L162.001 358.563L161.5 357.698ZM179.5 339.998L180.36 340.509L180.368 340.495L180.375 340.481L179.5 339.998ZM202 354.098L202.867 354.597L202.873 354.586L202 354.098ZM174.4 381.998L174.906 382.86L174.906 382.86L174.4 381.998ZM96.7001 381.998L97.2124 381.139L97.2058 381.135L96.7001 381.998ZM69.4001 354.098L68.5274 354.586L68.5274 354.586L69.4001 354.098ZM69.4001 274.298L68.5274 273.81L68.5274 273.81L69.4001 274.298ZM96.7001 246.398L97.2059 247.26L97.2124 247.257L96.7001 246.398ZM174.7 246.398L175.212 245.539L175.206 245.535L174.7 246.398ZM202 274.298L202.873 273.81L202.867 273.798L202 274.298ZM185.8 314.198L186.8 314.198C186.8 304.447 184.666 295.773 180.37 288.204L179.5 288.698L178.63 289.191C182.735 296.422 184.8 304.748 184.8 314.198L185.8 314.198ZM179.5 288.698L180.366 288.197C175.878 280.445 169.752 274.32 162.001 269.832L161.5 270.698L160.999 271.563C168.448 275.876 174.322 281.75 178.635 289.199L179.5 288.698ZM161.5 270.698L162.001 269.832C154.232 265.334 145.355 263.098 135.4 263.098L135.4 264.098L135.4 265.098C145.045 265.098 153.568 267.261 160.999 271.563L161.5 270.698ZM135.4 264.098L135.4 263.098C125.446 263.098 116.664 265.334 109.089 269.838L109.6 270.698L110.111 271.557C117.336 267.261 125.755 265.098 135.4 265.098L135.4 264.098ZM109.6 270.698L109.089 269.838C101.535 274.33 95.61 280.46 91.3249 288.214L92.2001 288.698L93.0754 289.181C97.1903 281.735 102.865 275.866 110.111 271.557L109.6 270.698ZM92.2001 288.698L91.3406 288.187C86.8384 295.759 84.6001 304.439 84.6001 314.198L85.6001 314.198L86.6001 314.198C86.6001 304.756 88.7619 296.437 93.0597 289.209L92.2001 288.698ZM85.6001 314.198L84.6001 314.198C84.6001 323.949 86.7347 332.718 91.0249 340.481L91.9001 339.998L92.7754 339.514C88.6656 332.077 86.6001 323.647 86.6001 314.198L85.6001 314.198ZM91.9001 339.998L91.0304 340.491C95.321 348.051 101.351 354.077 109.099 358.563L109.6 357.698L110.101 356.832C102.65 352.518 96.8792 346.745 92.7698 339.504L91.9001 339.998ZM109.6 357.698L109.089 358.557C116.664 363.061 125.446 365.298 135.4 365.298L135.4 364.298L135.4 363.298C125.755 363.298 117.336 361.134 110.111 356.838L109.6 357.698ZM135.4 364.298L135.4 365.298C145.355 365.298 154.232 363.061 162.001 358.563L161.5 357.698L160.999 356.832C153.568 361.134 145.045 363.298 135.4 363.298L135.4 364.298ZM161.5 357.698L162.001 358.563C169.746 354.079 175.871 348.059 180.36 340.509L179.5 339.998L178.641 339.487C174.33 346.737 168.454 352.516 160.999 356.832L161.5 357.698ZM179.5 339.998L180.375 340.481C184.666 332.718 186.8 323.949 186.8 314.198L185.8 314.198L184.8 314.198C184.8 323.647 182.735 332.077 178.625 339.514L179.5 339.998ZM211.9 314.198L210.9 314.198C210.9 328.843 207.636 341.973 201.127 353.61L202 354.098L202.873 354.586C209.564 342.623 212.9 329.152 212.9 314.198L211.9 314.198ZM202 354.098L201.134 353.598C194.419 365.25 185.343 374.424 173.894 381.135L174.4 381.998L174.906 382.86C186.658 375.971 195.981 366.545 202.867 354.597L202 354.098ZM174.4 381.998L173.894 381.135C162.459 387.839 149.635 391.198 135.4 391.198L135.4 392.198L135.4 393.198C149.965 393.198 163.142 389.757 174.906 382.86L174.4 381.998ZM135.4 392.198L135.4 391.198C121.165 391.198 108.444 387.839 97.2124 381.139L96.7001 381.998L96.1878 382.857C107.756 389.757 120.836 393.198 135.4 393.198L135.4 392.198ZM96.7001 381.998L97.2058 381.135C85.7602 374.426 76.7865 365.255 70.2729 353.61L69.4001 354.098L68.5274 354.586C75.2137 366.54 84.44 375.97 96.1944 382.86L96.7001 381.998ZM69.4001 354.098L70.2729 353.61C63.7641 341.973 60.5001 328.843 60.5001 314.198L59.5001 314.198L58.5001 314.198C58.5001 329.152 61.8362 342.623 68.5274 354.586L69.4001 354.098ZM59.5001 314.198L60.5001 314.198C60.5001 299.552 63.7641 286.423 70.2729 274.786L69.4001 274.298L68.5274 273.81C61.8362 285.773 58.5001 299.243 58.5001 314.198L59.5001 314.198ZM69.4001 274.298L70.2729 274.786C76.7865 263.14 85.7602 253.97 97.2058 247.26L96.7001 246.398L96.1944 245.535C84.44 252.426 75.2137 261.855 68.5274 273.81L69.4001 274.298ZM96.7001 246.398L97.2124 247.257C108.444 240.557 121.165 237.198 135.4 237.198L135.4 236.198L135.4 235.198C120.836 235.198 107.756 238.639 96.1878 245.539L96.7001 246.398ZM135.4 236.198L135.4 237.198C149.838 237.198 162.761 240.558 174.194 247.26L174.7 246.398L175.206 245.535C163.439 238.637 150.162 235.198 135.4 235.198L135.4 236.198ZM174.7 246.398L174.188 247.257C185.437 253.967 194.417 263.141 201.134 274.797L202 274.298L202.867 273.798C195.983 261.854 186.763 252.429 175.212 245.539L174.7 246.398ZM202 274.298L201.127 274.786C207.636 286.423 210.9 299.552 210.9 314.198L211.9 314.198L212.9 314.198C212.9 299.243 209.564 285.773 202.873 273.81L202 274.298ZM1.00012 181.902L1.00012 180.902L0.000115548 180.902L0.000115592 181.902L1.00012 181.902ZM208.9 181.902L209.9 181.902L209.9 180.902L208.9 180.902L208.9 181.902ZM208.9 208.902L208.9 209.902L209.9 209.902L209.9 208.902L208.9 208.902ZM1.00012 208.902L0.000116772 208.902L0.000116815 209.902L1.00012 209.902L1.00012 208.902ZM1.00012 181.902L1.00012 182.902L208.9 182.902L208.9 181.902L208.9 180.902L1.00012 180.902L1.00012 181.902ZM208.9 181.902L207.9 181.902L207.9 208.902L208.9 208.902L209.9 208.902L209.9 181.902L208.9 181.902ZM208.9 208.902L208.9 207.902L1.00012 207.902L1.00012 208.902L1.00012 209.902L208.9 209.902L208.9 208.902ZM1.00012 208.902L2.00012 208.902L2.00012 181.902L1.00012 181.902L0.000115592 181.902L0.000116772 208.902L1.00012 208.902ZM135.4 27.7001L135.4 28.7001L135.83 28.7001L136.126 28.3878L135.4 27.7001ZM97.6001 41.8001L98.3302 42.4835L98.3379 42.4751L97.6001 41.8001ZM90.4001 103L91.2945 102.553L91.2899 102.544L91.285 102.534L90.4001 103ZM107.5 121L106.999 121.865L106.999 121.865L107.5 121ZM163.9 121L164.391 121.871L164.401 121.865L163.9 121ZM181.3 103L182.185 103.466L182.192 103.452L182.199 103.438L181.3 103ZM183.4 55.9001L184.34 55.5583L184.335 55.5459L184.331 55.5335L183.4 55.9001ZM171.4 38.5001L170.706 39.2204L170.714 39.2272L170.721 39.2338L171.4 38.5001ZM150.4 27.1001L149.481 26.7061L149.031 27.7562L150.131 28.0633L150.4 27.1001ZM161.2 1.90006L161.516 0.951376L160.643 0.660405L160.281 1.50614L161.2 1.90006ZM190.6 19.6001L191.317 18.9024L191.316 18.9022L190.6 19.6001ZM206.8 46.0001L205.853 46.322L205.855 46.3278L206.8 46.0001ZM202 117.7L202.869 118.195L202.873 118.188L202 117.7ZM175 145L175.483 145.876L175.492 145.871L175.501 145.865L175 145ZM96.1001 144.4L95.5878 145.259L95.5878 145.259L96.1001 144.4ZM69.4001 116.8L70.2757 116.317L70.2729 116.312L69.4001 116.8ZM95.8001 11.2001L96.3012 12.0656L96.3124 12.0589L95.8001 11.2001ZM140.8 1.30005L140.701 2.29509L140.75 2.30005L140.8 2.30005L140.8 1.30005ZM146.2 1.60005L147.2 1.60005L147.2 0.705002L146.311 0.606163L146.2 1.60005ZM146.2 16.3001L146.926 16.9878L147.2 16.6985L147.2 16.3001L146.2 16.3001ZM146.2 139.3L146.161 140.299L147.2 140.34L147.2 139.3L146.2 139.3ZM123.1 138.4L122.1 138.4L122.1 139.362L123.061 139.399L123.1 138.4ZM123.1 6.40006L123.1 5.40006L122.1 5.40006L122.1 6.40006L123.1 6.40006ZM146.2 6.40006L147.2 6.40006L147.2 5.40006L146.2 5.40006L146.2 6.40006ZM135.4 27.7001L135.4 26.7001C118.609 26.7001 105.705 31.4599 96.8623 41.125L97.6001 41.8001L98.3379 42.4751C106.695 33.3402 118.991 28.7001 135.4 28.7001L135.4 27.7001ZM97.6001 41.8001L96.8701 41.1166C87.8782 50.7216 83.4001 62.7746 83.4001 77.2001L84.4001 77.2001L85.4001 77.2001C85.4001 63.2255 89.722 51.6785 98.3301 42.4835L97.6001 41.8001ZM84.4001 77.2001L83.4001 77.2001C83.4001 86.9429 85.4311 95.706 89.5152 103.466L90.4001 103L91.285 102.534C87.3692 95.0942 85.4001 86.6572 85.4001 77.2001L84.4001 77.2001ZM90.4001 103L89.5057 103.447C93.3962 111.228 99.2359 117.371 106.999 121.865L107.5 121L108.001 120.135C100.564 115.829 95.0041 109.972 91.2945 102.553L90.4001 103ZM107.5 121L106.999 121.865C114.785 126.373 124.268 128.6 135.4 128.6L135.4 127.6L135.4 126.6C124.532 126.6 115.415 124.427 108.001 120.135L107.5 121ZM135.4 127.6L135.4 128.6C146.73 128.6 156.408 126.374 164.391 121.871L163.9 121L163.409 120.129C155.792 124.426 146.471 126.6 135.4 126.6L135.4 127.6ZM163.9 121L164.401 121.865C172.16 117.373 178.095 111.236 182.185 103.466L181.3 103L180.415 102.534C176.505 109.964 170.84 115.827 163.399 120.135L163.9 121ZM181.3 103L182.199 103.438C186.072 95.4876 188 86.6355 188 76.9001L187 76.9001L186 76.9001C186 86.3646 184.128 94.9125 180.401 102.562L181.3 103ZM187 76.9001L188 76.9001C188 69.3898 186.782 62.2736 184.34 55.5583L183.4 55.9001L182.46 56.2418C184.818 62.7265 186 69.6103 186 76.9001L187 76.9001ZM183.4 55.9001L184.331 55.5335C181.673 48.7885 177.585 42.8644 172.08 37.7663L171.4 38.5001L170.721 39.2338C176.015 44.1357 179.927 49.8116 182.47 56.2666L183.4 55.9001ZM171.4 38.5001L172.094 37.7797C166.554 32.4448 159.398 28.5729 150.669 26.1369L150.4 27.1001L150.131 28.0633C158.602 30.4272 165.447 34.1553 170.706 39.2204L171.4 38.5001ZM150.4 27.1001L151.319 27.494L162.119 2.29398L161.2 1.90006L160.281 1.50614L149.481 26.7061L150.4 27.1001ZM161.2 1.90006L160.884 2.84874C172.757 6.80643 182.412 12.6294 189.884 20.2979L190.6 19.6001L191.316 18.9022C183.588 10.9707 173.643 4.99368 161.516 0.951376L161.2 1.90006ZM190.6 19.6001L189.884 20.2977C197.18 27.7916 202.501 36.4634 205.853 46.322L206.8 46.0001L207.747 45.6782C204.299 35.5367 198.82 26.6085 191.317 18.9024L190.6 19.6001ZM206.8 46.0001L205.855 46.3278C209.217 56.0181 210.9 66.207 210.9 76.9001L211.9 76.9001L212.9 76.9001C212.9 65.9931 211.183 55.582 207.745 45.6723L206.8 46.0001ZM211.9 76.9001L210.9 76.9001C210.9 92.1532 207.633 105.581 201.127 117.212L202 117.7L202.873 118.188C209.567 106.219 212.9 92.4469 212.9 76.9001L211.9 76.9001ZM202 117.7L201.131 117.206C194.617 128.654 185.744 137.625 174.499 144.135L175 145L175.501 145.865C187.057 139.175 196.183 129.947 202.869 118.195L202 117.7ZM175 145L174.517 144.124C163.082 150.434 150.051 153.6 135.4 153.6L135.4 154.6L135.4 155.6C150.349 155.6 163.719 152.366 175.483 145.876L175 145ZM135.4 154.6L135.4 153.6C120.759 153.6 107.84 150.239 96.6124 143.541L96.1001 144.4L95.5878 145.259C107.16 152.162 120.441 155.6 135.4 155.6L135.4 154.6ZM96.1001 144.4L96.6124 143.541C85.3643 136.832 76.5899 127.761 70.2757 116.317L69.4001 116.8L68.5245 117.283C75.0104 129.039 84.0359 138.368 95.5878 145.259L96.1001 144.4ZM69.4001 116.8L70.2729 116.312C63.7629 104.673 60.5001 91.6432 60.5001 77.2001L59.5001 77.2001L58.5001 77.2001C58.5001 91.9569 61.8373 105.327 68.5274 117.288L69.4001 116.8ZM59.5001 77.2001L60.5001 77.2001C60.5001 62.7511 63.6655 49.9232 69.9721 38.6896L69.1001 38.2001L68.2281 37.7105C61.7347 49.2769 58.5001 62.449 58.5001 77.2001L59.5001 77.2001ZM69.1001 38.2001L69.9721 38.6896C76.2837 27.4471 85.055 18.5764 96.3011 12.0655L95.8001 11.2001L95.2991 10.3346C83.7452 17.0237 74.7166 26.153 68.2281 37.7105L69.1001 38.2001ZM95.8001 11.2001L96.3124 12.0589C107.538 5.36283 120.557 2.00006 135.4 2.00005L135.4 1.00005L135.4 5.47347e-05C120.244 5.53972e-05 106.862 3.43728 95.2878 10.3412L95.8001 11.2001ZM135.4 1.00005L135.4 2.00005C136.96 2.00005 138.726 2.0976 140.701 2.29509L140.8 1.30005L140.9 0.305013C138.874 0.102505 137.04 5.4663e-05 135.4 5.47347e-05L135.4 1.00005ZM140.8 1.30005L140.8 2.30005C142.563 2.30005 144.326 2.39798 146.09 2.59393L146.2 1.60005L146.311 0.606163C144.474 0.402116 142.637 0.300051 140.8 0.300051L140.8 1.30005ZM146.2 1.60005L145.2 1.60005L145.2 16.3001L146.2 16.3001L147.2 16.3001L147.2 1.60005L146.2 1.60005ZM146.2 16.3001L145.474 15.6123L134.674 27.0123L135.4 27.7001L136.126 28.3878L146.926 16.9878L146.2 16.3001ZM146.2 139.3L146.239 138.301L123.139 137.401L123.1 138.4L123.061 139.399L146.161 140.299L146.2 139.3ZM123.1 138.4L124.1 138.4L124.1 6.40006L123.1 6.40006L122.1 6.40006L122.1 138.4L123.1 138.4ZM123.1 6.40006L123.1 7.40006L146.2 7.40006L146.2 6.40006L146.2 5.40006L123.1 5.40006L123.1 6.40006ZM146.2 6.40006L145.2 6.40006L145.2 139.3L146.2 139.3L147.2 139.3L147.2 6.40006L146.2 6.40006Z" fill="#C0C0C0" mask="url(#path-1-outside-1_240_80)"/>
</svg>
