<svg width="161" height="47" viewBox="0 0 161 47" fill="none" xmlns="http://www.w3.org/2000/svg">
<mask id="path-1-outside-1_240_91" maskUnits="userSpaceOnUse" x="-0.58838" y="-0.64795" width="162" height="48" fill="black">
<rect fill="white" x="-0.58838" y="-0.64795" width="162" height="48"/>
<path d="M17.3199 41.704C19.5812 41.704 21.6079 41.2134 23.3999 40.232C25.1919 39.208 26.5999 37.8 27.6239 36.008C28.6479 34.216 29.1599 32.1467 29.1599 29.8C29.1599 27.4534 28.6479 25.4054 27.6239 23.656C26.5999 21.864 25.1919 20.4774 23.3999 19.496C21.6079 18.472 19.5812 17.96 17.3199 17.96C15.0585 17.96 13.0319 18.472 11.2399 19.496C9.49054 20.4774 8.08254 21.864 7.01588 23.656C5.99188 25.4054 5.47988 27.4534 5.47988 29.8C5.47988 32.1467 5.99188 34.216 7.01588 36.008C8.08254 37.8 9.49054 39.208 11.2399 40.232C13.0319 41.2134 15.0585 41.704 17.3199 41.704ZM17.3199 45.992C14.2052 45.992 11.4105 45.288 8.93588 43.88C6.46121 42.472 4.51988 40.5307 3.11188 38.056C1.70388 35.5814 0.999878 32.8294 0.999878 29.8C0.999878 26.728 1.70388 23.976 3.11188 21.544C4.51988 19.112 6.46121 17.2134 8.93588 15.848C11.4532 14.44 14.2479 13.736 17.3199 13.736C20.4345 13.736 23.2292 14.44 25.7039 15.848C28.1785 17.2134 30.1199 19.1334 31.5279 21.608C32.9785 24.04 33.7039 26.7707 33.7039 29.8C33.7039 32.872 32.9785 35.624 31.5279 38.056C30.1199 40.488 28.1785 42.4294 25.7039 43.88C23.2292 45.288 20.4345 45.992 17.3199 45.992ZM44.5799 14.376V19.304C45.4759 18.152 46.5639 17.1707 47.8439 16.36C49.9345 15.0374 52.4305 14.376 55.3319 14.376H60.7079V18.664H54.8839C51.6839 18.664 49.1665 19.6027 47.3319 21.48C45.5399 23.3574 44.6439 26.0027 44.6439 29.416V45.352H40.2919V14.376H44.5799ZM70.7064 14.376V45.352H66.3544V14.376H70.7064ZM68.5304 9.12805C67.549 9.12805 66.7384 8.80805 66.0984 8.16805C65.4584 7.52805 65.1384 6.71738 65.1384 5.73605C65.1384 4.84005 65.4584 4.07205 66.0984 3.43205C66.7384 2.79205 67.549 2.47205 68.5304 2.47205C69.469 2.47205 70.2584 2.79205 70.8984 3.43205C71.5384 4.07205 71.8584 4.84005 71.8584 5.73605C71.8584 6.71738 71.5384 7.52805 70.8984 8.16805C70.2584 8.80805 69.469 9.12805 68.5304 9.12805ZM93.6324 41.704C95.8937 41.704 97.9204 41.2134 99.7124 40.232C101.504 39.208 102.912 37.8 103.936 36.008C104.96 34.216 105.472 32.1467 105.472 29.8C105.472 27.4534 104.96 25.4054 103.936 23.656C102.912 21.864 101.504 20.4774 99.7124 19.496C97.9204 18.472 95.8937 17.96 93.6324 17.96C91.371 17.96 89.3444 18.472 87.5524 19.496C85.803 20.4774 84.395 21.864 83.3284 23.656C82.3044 25.4054 81.7924 27.4534 81.7924 29.8C81.7924 32.1467 82.3044 34.216 83.3284 36.008C84.395 37.8 85.803 39.208 87.5524 40.232C89.3444 41.2134 91.371 41.704 93.6324 41.704ZM93.6324 45.992C90.5177 45.992 87.723 45.288 85.2484 43.88C82.7737 42.472 80.8324 40.5307 79.4244 38.056C78.0164 35.5814 77.3124 32.8294 77.3124 29.8C77.3124 26.728 78.0164 23.976 79.4244 21.544C80.8324 19.112 82.7737 17.2134 85.2484 15.848C87.7657 14.44 90.5604 13.736 93.6324 13.736C96.747 13.736 99.5417 14.44 102.016 15.848C104.491 17.2134 106.432 19.1334 107.84 21.608C109.291 24.04 110.016 26.7707 110.016 29.8C110.016 32.872 109.291 35.624 107.84 38.056C106.432 40.488 104.491 42.4294 102.016 43.88C99.5417 45.288 96.747 45.992 93.6324 45.992ZM120.956 1.00005V45.352H116.604V1.00005H120.956ZM156.618 31.528H131.978C132.192 33.4054 132.682 35.0267 133.45 36.392C134.517 38.184 135.946 39.5494 137.738 40.488C139.573 41.384 141.642 41.832 143.946 41.832C145.653 41.832 147.274 41.5547 148.81 41C150.389 40.4027 151.754 39.464 152.906 38.184C154.101 36.8614 154.976 35.1547 155.53 33.064L159.754 34.664C158.944 37.3947 157.728 39.592 156.106 41.256C154.485 42.92 152.608 44.136 150.474 44.904C148.384 45.6294 146.208 45.992 143.946 45.992C140.661 45.992 137.781 45.3094 135.306 43.944C132.874 42.536 130.976 40.616 129.61 38.184C128.245 35.7094 127.562 32.9147 127.562 29.8C127.562 26.6427 128.266 23.8694 129.674 21.48C131.125 19.048 133.066 17.1494 135.498 15.784C137.973 14.4187 140.768 13.736 143.882 13.736C146.912 13.736 149.621 14.4187 152.01 15.784C154.4 17.1067 156.298 18.9627 157.706 21.352C159.114 23.7414 159.818 26.5574 159.818 29.8C159.818 30.056 159.797 30.3334 159.754 30.632C159.754 30.9307 159.733 31.2294 159.69 31.528H156.618ZM155.338 27.688C154.997 24.8294 153.93 22.568 152.138 20.904C149.962 18.856 147.21 17.832 143.882 17.832C141.621 17.832 139.573 18.3014 137.738 19.24C135.946 20.136 134.517 21.48 133.45 23.272C132.725 24.552 132.256 26.024 132.042 27.688H155.338Z"/>
</mask>
<path d="M17.3199 41.704C19.5812 41.704 21.6079 41.2134 23.3999 40.232C25.1919 39.208 26.5999 37.8 27.6239 36.008C28.6479 34.216 29.1599 32.1467 29.1599 29.8C29.1599 27.4534 28.6479 25.4054 27.6239 23.656C26.5999 21.864 25.1919 20.4774 23.3999 19.496C21.6079 18.472 19.5812 17.96 17.3199 17.96C15.0585 17.96 13.0319 18.472 11.2399 19.496C9.49054 20.4774 8.08254 21.864 7.01588 23.656C5.99188 25.4054 5.47988 27.4534 5.47988 29.8C5.47988 32.1467 5.99188 34.216 7.01588 36.008C8.08254 37.8 9.49054 39.208 11.2399 40.232C13.0319 41.2134 15.0585 41.704 17.3199 41.704ZM17.3199 45.992C14.2052 45.992 11.4105 45.288 8.93588 43.88C6.46121 42.472 4.51988 40.5307 3.11188 38.056C1.70388 35.5814 0.999878 32.8294 0.999878 29.8C0.999878 26.728 1.70388 23.976 3.11188 21.544C4.51988 19.112 6.46121 17.2134 8.93588 15.848C11.4532 14.44 14.2479 13.736 17.3199 13.736C20.4345 13.736 23.2292 14.44 25.7039 15.848C28.1785 17.2134 30.1199 19.1334 31.5279 21.608C32.9785 24.04 33.7039 26.7707 33.7039 29.8C33.7039 32.872 32.9785 35.624 31.5279 38.056C30.1199 40.488 28.1785 42.4294 25.7039 43.88C23.2292 45.288 20.4345 45.992 17.3199 45.992ZM44.5799 14.376V19.304C45.4759 18.152 46.5639 17.1707 47.8439 16.36C49.9345 15.0374 52.4305 14.376 55.3319 14.376H60.7079V18.664H54.8839C51.6839 18.664 49.1665 19.6027 47.3319 21.48C45.5399 23.3574 44.6439 26.0027 44.6439 29.416V45.352H40.2919V14.376H44.5799ZM70.7064 14.376V45.352H66.3544V14.376H70.7064ZM68.5304 9.12805C67.549 9.12805 66.7384 8.80805 66.0984 8.16805C65.4584 7.52805 65.1384 6.71738 65.1384 5.73605C65.1384 4.84005 65.4584 4.07205 66.0984 3.43205C66.7384 2.79205 67.549 2.47205 68.5304 2.47205C69.469 2.47205 70.2584 2.79205 70.8984 3.43205C71.5384 4.07205 71.8584 4.84005 71.8584 5.73605C71.8584 6.71738 71.5384 7.52805 70.8984 8.16805C70.2584 8.80805 69.469 9.12805 68.5304 9.12805ZM93.6324 41.704C95.8937 41.704 97.9204 41.2134 99.7124 40.232C101.504 39.208 102.912 37.8 103.936 36.008C104.96 34.216 105.472 32.1467 105.472 29.8C105.472 27.4534 104.96 25.4054 103.936 23.656C102.912 21.864 101.504 20.4774 99.7124 19.496C97.9204 18.472 95.8937 17.96 93.6324 17.96C91.371 17.96 89.3444 18.472 87.5524 19.496C85.803 20.4774 84.395 21.864 83.3284 23.656C82.3044 25.4054 81.7924 27.4534 81.7924 29.8C81.7924 32.1467 82.3044 34.216 83.3284 36.008C84.395 37.8 85.803 39.208 87.5524 40.232C89.3444 41.2134 91.371 41.704 93.6324 41.704ZM93.6324 45.992C90.5177 45.992 87.723 45.288 85.2484 43.88C82.7737 42.472 80.8324 40.5307 79.4244 38.056C78.0164 35.5814 77.3124 32.8294 77.3124 29.8C77.3124 26.728 78.0164 23.976 79.4244 21.544C80.8324 19.112 82.7737 17.2134 85.2484 15.848C87.7657 14.44 90.5604 13.736 93.6324 13.736C96.747 13.736 99.5417 14.44 102.016 15.848C104.491 17.2134 106.432 19.1334 107.84 21.608C109.291 24.04 110.016 26.7707 110.016 29.8C110.016 32.872 109.291 35.624 107.84 38.056C106.432 40.488 104.491 42.4294 102.016 43.88C99.5417 45.288 96.747 45.992 93.6324 45.992ZM120.956 1.00005V45.352H116.604V1.00005H120.956ZM156.618 31.528H131.978C132.192 33.4054 132.682 35.0267 133.45 36.392C134.517 38.184 135.946 39.5494 137.738 40.488C139.573 41.384 141.642 41.832 143.946 41.832C145.653 41.832 147.274 41.5547 148.81 41C150.389 40.4027 151.754 39.464 152.906 38.184C154.101 36.8614 154.976 35.1547 155.53 33.064L159.754 34.664C158.944 37.3947 157.728 39.592 156.106 41.256C154.485 42.92 152.608 44.136 150.474 44.904C148.384 45.6294 146.208 45.992 143.946 45.992C140.661 45.992 137.781 45.3094 135.306 43.944C132.874 42.536 130.976 40.616 129.61 38.184C128.245 35.7094 127.562 32.9147 127.562 29.8C127.562 26.6427 128.266 23.8694 129.674 21.48C131.125 19.048 133.066 17.1494 135.498 15.784C137.973 14.4187 140.768 13.736 143.882 13.736C146.912 13.736 149.621 14.4187 152.01 15.784C154.4 17.1067 156.298 18.9627 157.706 21.352C159.114 23.7414 159.818 26.5574 159.818 29.8C159.818 30.056 159.797 30.3334 159.754 30.632C159.754 30.9307 159.733 31.2294 159.69 31.528H156.618ZM155.338 27.688C154.997 24.8294 153.93 22.568 152.138 20.904C149.962 18.856 147.21 17.832 143.882 17.832C141.621 17.832 139.573 18.3014 137.738 19.24C135.946 20.136 134.517 21.48 133.45 23.272C132.725 24.552 132.256 26.024 132.042 27.688H155.338Z" fill="white"/>
<path d="M23.3999 40.232L23.8802 41.1091L23.8881 41.1048L23.896 41.1003L23.3999 40.232ZM27.6239 36.008L28.4921 36.5042L28.4921 36.5042L27.6239 36.008ZM27.6239 23.656L26.7556 24.1522L26.7609 24.1612L27.6239 23.656ZM23.3999 19.496L22.9037 20.3643L22.9116 20.3688L22.9196 20.3731L23.3999 19.496ZM11.2399 19.496L11.7291 20.3682L11.736 20.3643L11.2399 19.496ZM7.01588 23.656L6.15656 23.1445L6.15286 23.1509L7.01588 23.656ZM7.01588 36.008L6.14763 36.5042L6.15204 36.5119L6.15658 36.5195L7.01588 36.008ZM11.2399 40.232L10.7347 41.0951L10.747 41.1023L10.7596 41.1091L11.2399 40.232ZM8.93588 43.88L8.44135 44.7492L8.44135 44.7492L8.93588 43.88ZM3.11188 38.056L3.98104 37.5615L3.98104 37.5615L3.11188 38.056ZM3.11188 21.544L3.9773 22.0451L3.9773 22.0451L3.11188 21.544ZM8.93588 15.848L9.41896 16.7236L9.42403 16.7208L8.93588 15.848ZM25.7039 15.848L25.2093 16.7173L25.2208 16.7236L25.7039 15.848ZM31.5279 21.608L30.6587 22.1026L30.6638 22.1115L30.6691 22.1203L31.5279 21.608ZM31.5279 38.056L30.669 37.5437L30.6625 37.555L31.5279 38.056ZM25.7039 43.88L26.1984 44.7493L26.2096 44.7427L25.7039 43.88ZM17.3199 41.704V42.704C19.7308 42.704 21.9257 42.1795 23.8802 41.1091L23.3999 40.232L22.9196 39.355C21.2901 40.2473 19.4316 40.704 17.3199 40.704V41.704ZM23.3999 40.232L23.896 41.1003C25.843 39.9877 27.3795 38.4512 28.4921 36.5042L27.6239 36.008L26.7556 35.5119C25.8202 37.1489 24.5407 38.4284 22.9037 39.3638L23.3999 40.232ZM27.6239 36.008L28.4921 36.5042C29.6137 34.5414 30.1599 32.2965 30.1599 29.8H29.1599H28.1599C28.1599 31.9969 27.682 33.8907 26.7556 35.5119L27.6239 36.008ZM29.1599 29.8H30.1599C30.1599 27.3042 29.6139 25.0762 28.4869 23.1509L27.6239 23.656L26.7609 24.1612C27.6818 25.7346 28.1599 27.6026 28.1599 29.8H29.1599ZM27.6239 23.656L28.4921 23.1599C27.3775 21.2093 25.8359 19.69 23.8802 18.619L23.3999 19.496L22.9196 20.3731C24.5478 21.2648 25.8223 22.5188 26.7556 24.1522L27.6239 23.656ZM23.3999 19.496L23.896 18.6278C21.9387 17.5094 19.7381 16.96 17.3199 16.96V17.96V18.96C19.4243 18.96 21.277 19.4347 22.9037 20.3643L23.3999 19.496ZM17.3199 17.96V16.96C14.9016 16.96 12.701 17.5094 10.7437 18.6278L11.2399 19.496L11.736 20.3643C13.3627 19.4347 15.2155 18.96 17.3199 18.96V17.96ZM11.2399 19.496L10.7506 18.6239C8.84227 19.6944 7.30916 21.2082 6.15658 23.1446L7.01588 23.656L7.87517 24.1675C8.85593 22.5199 10.1388 21.2603 11.7291 20.3682L11.2399 19.496ZM7.01588 23.656L6.15286 23.1509C5.02584 25.0762 4.47988 27.3042 4.47988 29.8H5.47988H6.47988C6.47988 27.6026 6.95792 25.7346 7.87889 24.1612L7.01588 23.656ZM5.47988 29.8H4.47988C4.47988 32.2965 5.02602 34.5414 6.14763 36.5042L7.01588 36.008L7.88412 35.5119C6.95774 33.8907 6.47988 31.9969 6.47988 29.8H5.47988ZM7.01588 36.008L6.15658 36.5195C7.30709 38.4524 8.8352 39.9832 10.7347 41.0951L11.2399 40.232L11.7451 39.369C10.1459 38.4329 8.85799 37.1477 7.87517 35.4966L7.01588 36.008ZM11.2399 40.232L10.7596 41.1091C12.7141 42.1795 14.909 42.704 17.3199 42.704V41.704V40.704C15.2081 40.704 13.3497 40.2473 11.7202 39.355L11.2399 40.232ZM17.3199 45.992V44.992C14.3619 44.992 11.7404 44.3252 9.4304 43.0109L8.93588 43.88L8.44135 44.7492C11.0806 46.2509 14.0486 46.992 17.3199 46.992V45.992ZM8.93588 43.88L9.4304 43.0109C7.11203 41.6918 5.30012 39.8799 3.98104 37.5615L3.11188 38.056L2.24271 38.5506C3.73964 41.1815 5.81039 43.2523 8.44135 44.7492L8.93588 43.88ZM3.11188 38.056L3.98104 37.5615C2.6643 35.2472 1.99988 32.6675 1.99988 29.8H0.999878H-0.000122165C-0.000122165 32.9913 0.743459 35.9155 2.24271 38.5506L3.11188 38.056ZM0.999878 29.8H1.99988C1.99988 26.8871 2.66554 24.3109 3.9773 22.0451L3.11188 21.544L2.24645 21.043C0.742213 23.6412 -0.000122165 26.569 -0.000122165 29.8H0.999878ZM3.11188 21.544L3.9773 22.0451C5.2937 19.7713 7.10244 18.0017 9.41895 16.7236L8.93588 15.848L8.4528 14.9725C5.81999 16.4251 3.74605 18.4528 2.24645 21.043L3.11188 21.544ZM8.93588 15.848L9.42403 16.7208C11.7825 15.4017 14.4073 14.736 17.3199 14.736V13.736V12.736C14.0885 12.736 11.1239 13.4784 8.44772 14.9753L8.93588 15.848ZM17.3199 13.736V14.736C20.2779 14.736 22.8993 15.4029 25.2094 16.7172L25.7039 15.848L26.1984 14.9789C23.5591 13.4772 20.5912 12.736 17.3199 12.736V13.736ZM25.7039 15.848L25.2208 16.7236C27.5329 17.9992 29.3411 19.7868 30.6587 22.1026L31.5279 21.608L32.397 21.1135C30.8986 18.4799 28.8242 16.4275 26.187 14.9725L25.7039 15.848ZM31.5279 21.608L30.6691 22.1203C32.0209 24.3866 32.7039 26.938 32.7039 29.8H33.7039H34.7039C34.7039 26.6034 33.9362 23.6935 32.3867 21.0958L31.5279 21.608ZM33.7039 29.8H32.7039C32.7039 32.7075 32.0195 35.2797 30.6691 37.5438L31.5279 38.056L32.3867 38.5683C33.9375 35.9684 34.7039 33.0366 34.7039 29.8H33.7039ZM31.5279 38.056L30.6625 37.555C29.3429 39.8342 27.5269 41.6522 25.1982 43.0173L25.7039 43.88L26.2096 44.7427C28.8302 43.2065 30.8968 41.1419 32.3933 38.5571L31.5279 38.056ZM25.7039 43.88L25.2094 43.0109C22.8993 44.3252 20.2779 44.992 17.3199 44.992V45.992V46.992C20.5912 46.992 23.5591 46.2509 26.1984 44.7492L25.7039 43.88ZM44.5799 14.376H45.5799V13.376H44.5799V14.376ZM44.5799 19.304H43.5799V22.2186L45.3692 19.918L44.5799 19.304ZM47.8439 16.36L47.3092 15.515L47.3088 15.5152L47.8439 16.36ZM60.7079 14.376H61.7079V13.376H60.7079V14.376ZM60.7079 18.664V19.664H61.7079V18.664H60.7079ZM47.3319 21.48L46.6166 20.7811L46.6085 20.7896L47.3319 21.48ZM44.6439 45.352V46.352H45.6439V45.352H44.6439ZM40.2919 45.352H39.2919V46.352H40.2919V45.352ZM40.2919 14.376V13.376H39.2919V14.376H40.2919ZM44.5799 14.376H43.5799V19.304H44.5799H45.5799V14.376H44.5799ZM44.5799 19.304L45.3692 19.918C46.1917 18.8605 47.1926 17.9562 48.3789 17.2049L47.8439 16.36L47.3088 15.5152C45.9351 16.3852 44.76 17.4436 43.7905 18.6901L44.5799 19.304ZM47.8439 16.36L48.3785 17.2051C50.2833 16.0001 52.5866 15.376 55.3319 15.376V14.376V13.376C52.2745 13.376 49.5858 14.0747 47.3092 15.515L47.8439 16.36ZM55.3319 14.376V15.376H60.7079V14.376V13.376H55.3319V14.376ZM60.7079 14.376H59.7079V18.664H60.7079H61.7079V14.376H60.7079ZM60.7079 18.664V17.664H54.8839V18.664V19.664H60.7079V18.664ZM54.8839 18.664V17.664C51.4777 17.664 48.6794 18.6704 46.6167 20.7811L47.3319 21.48L48.0471 22.179C49.6537 20.535 51.89 19.664 54.8839 19.664V18.664ZM47.3319 21.48L46.6085 20.7896C44.5886 22.9057 43.6439 25.8291 43.6439 29.416H44.6439H45.6439C45.6439 26.1763 46.4911 23.8091 48.0552 22.1705L47.3319 21.48ZM44.6439 29.416H43.6439V45.352H44.6439H45.6439V29.416H44.6439ZM44.6439 45.352V44.352H40.2919V45.352V46.352H44.6439V45.352ZM40.2919 45.352H41.2919V14.376H40.2919H39.2919V45.352H40.2919ZM40.2919 14.376V15.376H44.5799V14.376V13.376H40.2919V14.376ZM70.7064 14.376H71.7064V13.376H70.7064V14.376ZM70.7064 45.352V46.352H71.7064V45.352H70.7064ZM66.3544 45.352H65.3544V46.352H66.3544V45.352ZM66.3544 14.376V13.376H65.3544V14.376H66.3544ZM66.0984 8.16805L65.3913 8.87515L65.3913 8.87515L66.0984 8.16805ZM66.0984 3.43205L65.3913 2.72494L65.3913 2.72494L66.0984 3.43205ZM70.7064 14.376H69.7064V45.352H70.7064H71.7064V14.376H70.7064ZM70.7064 45.352V44.352H66.3544V45.352V46.352H70.7064V45.352ZM66.3544 45.352H67.3544V14.376H66.3544H65.3544V45.352H66.3544ZM66.3544 14.376V15.376H70.7064V14.376V13.376H66.3544V14.376ZM68.5304 9.12805V8.12805C67.7896 8.12805 67.2412 7.89667 66.8055 7.46094L66.0984 8.16805L65.3913 8.87515C66.2355 9.71943 67.3085 10.128 68.5304 10.128V9.12805ZM66.0984 8.16805L66.8055 7.46094C66.3698 7.02521 66.1384 6.47681 66.1384 5.73605H65.1384H64.1384C64.1384 6.95795 64.547 8.03088 65.3913 8.87515L66.0984 8.16805ZM65.1384 5.73605H66.1384C66.1384 5.10827 66.3509 4.59376 66.8055 4.13915L66.0984 3.43205L65.3913 2.72494C64.5659 3.55034 64.1384 4.57182 64.1384 5.73605H65.1384ZM66.0984 3.43205L66.8055 4.13915C67.2412 3.70343 67.7896 3.47205 68.5304 3.47205V2.47205V1.47205C67.3085 1.47205 66.2355 1.88067 65.3913 2.72494L66.0984 3.43205ZM68.5304 2.47205V3.47205C69.2148 3.47205 69.7464 3.69432 70.1913 4.13915L70.8984 3.43205L71.6055 2.72494C70.7703 1.88978 69.7233 1.47205 68.5304 1.47205V2.47205ZM70.8984 3.43205L70.1913 4.13915C70.6459 4.59376 70.8584 5.10827 70.8584 5.73605H71.8584H72.8584C72.8584 4.57182 72.4309 3.55034 71.6055 2.72494L70.8984 3.43205ZM71.8584 5.73605H70.8584C70.8584 6.47681 70.627 7.02521 70.1913 7.46094L70.8984 8.16805L71.6055 8.87515C72.4498 8.03088 72.8584 6.95795 72.8584 5.73605H71.8584ZM70.8984 8.16805L70.1913 7.46094C69.7464 7.90578 69.2148 8.12805 68.5304 8.12805V9.12805V10.128C69.7233 10.128 70.7703 9.71032 71.6055 8.87515L70.8984 8.16805ZM99.7124 40.232L100.193 41.1091L100.201 41.1048L100.209 41.1003L99.7124 40.232ZM103.936 36.008L104.805 36.5042L104.805 36.5042L103.936 36.008ZM103.936 23.656L103.068 24.1522L103.073 24.1612L103.936 23.656ZM99.7124 19.496L99.2162 20.3643L99.2241 20.3688L99.2321 20.3731L99.7124 19.496ZM87.5524 19.496L88.0416 20.3682L88.0485 20.3643L87.5524 19.496ZM83.3284 23.656L82.4691 23.1445L82.4654 23.1509L83.3284 23.656ZM83.3284 36.008L82.4601 36.5042L82.4645 36.5119L82.4691 36.5195L83.3284 36.008ZM87.5524 40.232L87.0472 41.0951L87.0595 41.1023L87.0721 41.1091L87.5524 40.232ZM85.2484 43.88L84.7538 44.7492L84.7538 44.7492L85.2484 43.88ZM79.4244 38.056L80.2935 37.5615L80.2935 37.5615L79.4244 38.056ZM79.4244 21.544L80.2898 22.0451L80.2898 22.0451L79.4244 21.544ZM85.2484 15.848L85.7315 16.7236L85.7365 16.7208L85.2484 15.848ZM102.016 15.848L101.522 16.7173L101.533 16.7236L102.016 15.848ZM107.84 21.608L106.971 22.1026L106.976 22.1115L106.982 22.1203L107.84 21.608ZM107.84 38.056L106.981 37.5437L106.975 37.555L107.84 38.056ZM102.016 43.88L102.511 44.7493L102.522 44.7427L102.016 43.88ZM93.6324 41.704V42.704C96.0433 42.704 98.2382 42.1795 100.193 41.1091L99.7124 40.232L99.2321 39.355C97.6026 40.2473 95.7441 40.704 93.6324 40.704V41.704ZM99.7124 40.232L100.209 41.1003C102.156 39.9877 103.692 38.4512 104.805 36.5042L103.936 36.008L103.068 35.5119C102.133 37.1489 100.853 38.4284 99.2162 39.3638L99.7124 40.232ZM103.936 36.008L104.805 36.5042C105.926 34.5414 106.472 32.2965 106.472 29.8H105.472H104.472C104.472 31.9969 103.995 33.8907 103.068 35.5119L103.936 36.008ZM105.472 29.8H106.472C106.472 27.3042 105.926 25.0762 104.799 23.1509L103.936 23.656L103.073 24.1612C103.994 25.7346 104.472 27.6026 104.472 29.8H105.472ZM103.936 23.656L104.805 23.1599C103.69 21.2093 102.148 19.69 100.193 18.619L99.7124 19.496L99.2321 20.3731C100.86 21.2648 102.135 22.5188 103.068 24.1522L103.936 23.656ZM99.7124 19.496L100.209 18.6278C98.2512 17.5094 96.0506 16.96 93.6324 16.96V17.96V18.96C95.7368 18.96 97.5895 19.4347 99.2162 20.3643L99.7124 19.496ZM93.6324 17.96V16.96C91.2141 16.96 89.0135 17.5094 87.0562 18.6278L87.5524 19.496L88.0485 20.3643C89.6752 19.4347 91.528 18.96 93.6324 18.96V17.96ZM87.5524 19.496L87.0631 18.6239C85.1548 19.6944 83.6217 21.2082 82.4691 23.1446L83.3284 23.656L84.1877 24.1675C85.1684 22.5199 86.4513 21.2603 88.0416 20.3682L87.5524 19.496ZM83.3284 23.656L82.4654 23.1509C81.3383 25.0762 80.7924 27.3042 80.7924 29.8H81.7924H82.7924C82.7924 27.6026 83.2704 25.7346 84.1914 24.1612L83.3284 23.656ZM81.7924 29.8H80.7924C80.7924 32.2965 81.3385 34.5414 82.4601 36.5042L83.3284 36.008L84.1966 35.5119C83.2702 33.8907 82.7924 31.9969 82.7924 29.8H81.7924ZM83.3284 36.008L82.4691 36.5195C83.6196 38.4524 85.1477 39.9832 87.0472 41.0951L87.5524 40.232L88.0576 39.369C86.4584 38.4329 85.1705 37.1477 84.1877 35.4966L83.3284 36.008ZM87.5524 40.232L87.0721 41.1091C89.0266 42.1795 91.2215 42.704 93.6324 42.704V41.704V40.704C91.5206 40.704 89.6622 40.2473 88.0327 39.355L87.5524 40.232ZM93.6324 45.992V44.992C90.6744 44.992 88.0529 44.3252 85.7429 43.0109L85.2484 43.88L84.7538 44.7492C87.3931 46.2509 90.361 46.992 93.6324 46.992V45.992ZM85.2484 43.88L85.7429 43.0109C83.4245 41.6918 81.6126 39.8799 80.2935 37.5615L79.4244 38.056L78.5552 38.5506C80.0521 41.1815 82.1229 43.2523 84.7538 44.7492L85.2484 43.88ZM79.4244 38.056L80.2935 37.5615C78.9768 35.2472 78.3124 32.6675 78.3124 29.8H77.3124H76.3124C76.3124 32.9913 77.056 35.9155 78.5552 38.5506L79.4244 38.056ZM77.3124 29.8H78.3124C78.3124 26.8871 78.978 24.3109 80.2898 22.0451L79.4244 21.544L78.5589 21.043C77.0547 23.6412 76.3124 26.569 76.3124 29.8H77.3124ZM79.4244 21.544L80.2898 22.0451C81.6062 19.7713 83.4149 18.0017 85.7315 16.7236L85.2484 15.848L84.7653 14.9725C82.1325 16.4251 80.0585 18.4528 78.5589 21.043L79.4244 21.544ZM85.2484 15.848L85.7365 16.7208C88.095 15.4017 90.7198 14.736 93.6324 14.736V13.736V12.736C90.4009 12.736 87.4364 13.4784 84.7602 14.9753L85.2484 15.848ZM93.6324 13.736V14.736C96.5904 14.736 99.2118 15.4029 101.522 16.7172L102.016 15.848L102.511 14.9789C99.8716 13.4772 96.9037 12.736 93.6324 12.736V13.736ZM102.016 15.848L101.533 16.7236C103.845 17.9992 105.654 19.7868 106.971 22.1026L107.84 21.608L108.71 21.1135C107.211 18.4799 105.137 16.4275 102.499 14.9725L102.016 15.848ZM107.84 21.608L106.982 22.1203C108.333 24.3866 109.016 26.938 109.016 29.8H110.016H111.016C111.016 26.6034 110.249 23.6935 108.699 21.0958L107.84 21.608ZM110.016 29.8H109.016C109.016 32.7075 108.332 35.2797 106.982 37.5438L107.84 38.056L108.699 38.5683C110.25 35.9684 111.016 33.0366 111.016 29.8H110.016ZM107.84 38.056L106.975 37.555C105.655 39.8342 103.839 41.6522 101.511 43.0173L102.016 43.88L102.522 44.7427C105.143 43.2065 107.209 41.1419 108.706 38.5571L107.84 38.056ZM102.016 43.88L101.522 43.0109C99.2118 44.3252 96.5904 44.992 93.6324 44.992V45.992V46.992C96.9037 46.992 99.8716 46.2509 102.511 44.7492L102.016 43.88ZM120.956 1.00005H121.956V4.85392e-05H120.956V1.00005ZM120.956 45.352V46.352H121.956V45.352H120.956ZM116.604 45.352H115.604V46.352H116.604V45.352ZM116.604 1.00005V4.85392e-05H115.604V1.00005H116.604ZM120.956 1.00005H119.956V45.352H120.956H121.956V1.00005H120.956ZM120.956 45.352V44.352H116.604V45.352V46.352H120.956V45.352ZM116.604 45.352H117.604V1.00005H116.604H115.604V45.352H116.604ZM116.604 1.00005V2.00005H120.956V1.00005V4.85392e-05H116.604V1.00005ZM131.978 31.528V30.528H130.858L130.985 31.641L131.978 31.528ZM133.45 36.392L132.579 36.8823L132.585 36.893L132.591 36.9035L133.45 36.392ZM137.738 40.488L137.274 41.3739L137.287 41.3804L137.3 41.3866L137.738 40.488ZM148.81 41L149.15 41.9406L149.157 41.938L149.164 41.9353L148.81 41ZM152.906 38.184L152.164 37.5138L152.163 37.5151L152.906 38.184ZM155.53 33.064L155.885 32.1289L154.848 31.7363L154.564 32.8076L155.53 33.064ZM159.754 34.664L160.713 34.9486L160.977 34.058L160.109 33.7289L159.754 34.664ZM156.106 41.256L156.823 41.9539L156.823 41.9539L156.106 41.256ZM150.474 44.904L150.802 45.8489L150.813 45.8449L150.474 44.904ZM135.306 43.944L134.805 44.8095L134.814 44.8146L134.823 44.8196L135.306 43.944ZM129.61 38.184L128.735 38.6671L128.738 38.6736L129.61 38.184ZM129.674 21.48L128.816 20.9678L128.813 20.9724L129.674 21.48ZM135.498 15.784L135.015 14.9084L135.009 14.9121L135.498 15.784ZM152.01 15.784L151.514 16.6524L151.526 16.6589L152.01 15.784ZM157.706 21.352L156.845 21.8597L156.845 21.8597L157.706 21.352ZM159.754 30.632L158.764 30.4906L158.754 30.561V30.632H159.754ZM159.69 31.528V32.528H160.558L160.68 31.6695L159.69 31.528ZM155.338 27.688V28.688H156.465L156.331 27.5695L155.338 27.688ZM152.138 20.904L151.453 21.6323L151.458 21.6368L152.138 20.904ZM137.738 19.24L138.186 20.1345L138.194 20.1303L137.738 19.24ZM133.45 23.272L132.591 22.7606L132.586 22.7697L132.58 22.779L133.45 23.272ZM132.042 27.688L131.05 27.5609L130.906 28.688H132.042V27.688ZM156.618 31.528V30.528H131.978V31.528V32.528H156.618V31.528ZM131.978 31.528L130.985 31.641C131.21 33.6242 131.733 35.3792 132.579 36.8823L133.45 36.392L134.322 35.9018C133.631 34.6742 133.173 33.1865 132.972 31.4151L131.978 31.528ZM133.45 36.392L132.591 36.9035C133.749 38.8493 135.313 40.3466 137.274 41.3739L137.738 40.488L138.202 39.6022C136.579 38.7521 135.285 37.5188 134.31 35.8806L133.45 36.392ZM137.738 40.488L137.3 41.3866C139.287 42.3575 141.51 42.832 143.946 42.832V41.832V40.832C141.775 40.832 139.859 40.4106 138.177 39.5895L137.738 40.488ZM143.946 41.832V42.832C145.764 42.832 147.5 42.5364 149.15 41.9406L148.81 41L148.471 40.0595C147.048 40.5731 145.543 40.832 143.946 40.832V41.832ZM148.81 41L149.164 41.9353C150.895 41.2804 152.393 40.2491 153.65 38.853L152.906 38.184L152.163 37.5151C151.116 38.679 149.883 39.5251 148.456 40.0648L148.81 41ZM152.906 38.184L153.648 38.8543C154.97 37.3909 155.91 35.5325 156.497 33.3205L155.53 33.064L154.564 32.8076C154.041 34.7769 153.232 36.3319 152.164 37.5138L152.906 38.184ZM155.53 33.064L155.176 33.9992L159.4 35.5992L159.754 34.664L160.109 33.7289L155.885 32.1289L155.53 33.064ZM159.754 34.664L158.796 34.3794C158.021 36.9894 156.876 39.0336 155.39 40.5582L156.106 41.256L156.823 41.9539C158.58 40.1504 159.867 37.8 160.713 34.9486L159.754 34.664ZM156.106 41.256L155.39 40.5582C153.872 42.1164 152.123 43.2478 150.136 43.9632L150.474 44.904L150.813 45.8449C153.093 45.0243 155.098 43.7237 156.823 41.9539L156.106 41.256ZM150.474 44.904L150.147 43.9593C148.164 44.6472 146.099 44.992 143.946 44.992V45.992V46.992C146.317 46.992 148.604 46.6115 150.802 45.8488L150.474 44.904ZM143.946 45.992V44.992C140.802 44.992 138.094 44.3398 135.789 43.0685L135.306 43.944L134.823 44.8196C137.468 46.279 140.52 46.992 143.946 46.992V45.992ZM135.306 43.944L135.807 43.0786C133.529 41.7597 131.759 39.969 130.482 37.6945L129.61 38.184L128.738 38.6736C130.192 41.2631 132.219 43.3124 134.805 44.8095L135.306 43.944ZM129.61 38.184L130.486 37.701C129.21 35.3889 128.562 32.7634 128.562 29.8H127.562H126.562C126.562 33.066 127.28 36.0298 128.735 38.6671L129.61 38.184ZM127.562 29.8H128.562C128.562 26.7961 129.231 24.2029 130.536 21.9877L129.674 21.48L128.813 20.9724C127.302 23.5359 126.562 26.4893 126.562 29.8H127.562ZM129.674 21.48L130.533 21.9923C131.896 19.708 133.711 17.9344 135.988 16.656L135.498 15.784L135.009 14.9121C132.422 16.3643 130.354 18.3881 128.816 20.9678L129.674 21.48ZM135.498 15.784L135.981 16.6596C138.293 15.384 140.919 14.736 143.882 14.736V13.736V12.736C140.616 12.736 137.653 13.4534 135.015 14.9085L135.498 15.784ZM143.882 13.736V14.736C146.756 14.736 149.291 15.3818 151.514 16.6523L152.01 15.784L152.507 14.9158C149.951 13.4556 147.068 12.736 143.882 12.736V13.736ZM152.01 15.784L151.526 16.6589C153.757 17.8937 155.526 19.6218 156.845 21.8597L157.706 21.352L158.568 20.8444C157.071 18.3036 155.043 16.3197 152.495 14.9092L152.01 15.784ZM157.706 21.352L156.845 21.8597C158.148 24.0709 158.818 26.7054 158.818 29.8H159.818H160.818C160.818 26.4094 160.081 23.4119 158.568 20.8444L157.706 21.352ZM159.818 29.8H158.818C158.818 30.0013 158.802 30.2308 158.764 30.4906L159.754 30.632L160.744 30.7735C160.793 30.436 160.818 30.1108 160.818 29.8H159.818ZM159.754 30.632H158.754C158.754 30.8829 158.736 31.1343 158.7 31.3866L159.69 31.528L160.68 31.6695C160.73 31.3244 160.754 30.9785 160.754 30.632H159.754ZM159.69 31.528V30.528H156.618V31.528V32.528H159.69V31.528ZM155.338 27.688L156.331 27.5695C155.967 24.5194 154.814 22.0242 152.819 20.1713L152.138 20.904L151.458 21.6368C153.046 23.1119 154.027 25.1394 154.345 27.8066L155.338 27.688ZM152.138 20.904L152.824 20.1758C150.441 17.9329 147.434 16.832 143.882 16.832V17.832V18.832C146.987 18.832 149.484 19.7792 151.453 21.6322L152.138 20.904ZM143.882 17.832V16.832C141.478 16.832 139.272 17.3322 137.283 18.3498L137.738 19.24L138.194 20.1303C139.874 19.2706 141.764 18.832 143.882 18.832V17.832ZM137.738 19.24L137.291 18.3456C135.321 19.3308 133.751 20.8112 132.591 22.7606L133.45 23.272L134.31 23.7835C135.283 22.1489 136.572 20.9413 138.186 20.1345L137.738 19.24ZM133.45 23.272L132.58 22.779C131.783 24.1866 131.278 25.7861 131.05 27.5609L132.042 27.688L133.034 27.8152C133.233 26.262 133.667 24.9174 134.32 23.7651L133.45 23.272ZM132.042 27.688V28.688H155.338V27.688V26.688H132.042V27.688Z" fill="#CAC5C5" mask="url(#path-1-outside-1_240_91)"/>
</svg>
