<svg width="43" height="43" viewBox="0 0 43 43" fill="none" xmlns="http://www.w3.org/2000/svg">
<circle cx="21.5" cy="21.5" r="21.5" fill="white"/>
<path d="M20.257 10.8483C19.0812 10.9592 18.023 11.2044 17.0656 11.5874C14.6233 12.5616 12.6111 14.4059 11.4286 16.7541C10.9146 17.7754 10.5249 19.0586 10.3603 20.2646C10.2796 20.8525 10.2796 22.3307 10.3603 22.9186C10.75 25.7875 12.1307 28.2398 14.3613 30.0304C15.4329 30.8904 16.7229 31.5555 18.0062 31.915C19.1719 32.2408 19.9748 32.3584 21.0666 32.3584C24.1035 32.3584 27.0429 31.0415 29.0552 28.7807C30.2478 27.4436 31.0272 25.9789 31.4807 24.2287C31.6251 23.6778 31.6318 23.54 31.521 23.3519C31.3799 23.1134 30.97 23.0798 30.792 23.2914C30.745 23.3486 30.6509 23.493 30.5804 23.6173C29.4718 25.6094 27.5939 27.064 25.4304 27.6015C24.6578 27.7964 24.2983 27.8367 23.4316 27.84C22.6052 27.84 22.2357 27.7997 21.5336 27.6351C19.5515 27.1715 17.7643 25.9218 16.6154 24.1951C16.0712 23.3821 15.6379 22.3643 15.4396 21.4404C15.1474 20.0866 15.2079 18.5144 15.6009 17.2748C15.7017 16.9624 15.9604 16.3241 16.1082 16.0318C17.1328 13.9961 18.8964 12.5112 21.0935 11.8326C21.4798 11.7117 21.5772 11.6411 21.631 11.4396C21.7049 11.1742 21.547 10.9256 21.2648 10.8618C21.1237 10.8282 20.5291 10.8214 20.257 10.8483Z" fill="black"/>
</svg>
