<svg width="209" height="751" viewBox="0 0 209 751" fill="none" xmlns="http://www.w3.org/2000/svg">
<path d="M184.8 672.377C184.8 662.777 182.7 654.277 178.5 646.877C174.1 639.277 168.1 633.277 160.5 628.877C152.9 624.477 144.2 622.277 134.4 622.277C124.6 622.277 116 624.477 108.6 628.877C101.2 633.277 95.3999 639.277 91.1999 646.877C86.7999 654.277 84.5999 662.777 84.5999 672.377C84.5999 681.977 86.6999 690.577 90.8999 698.177C95.0999 705.577 101 711.477 108.6 715.877C116 720.277 124.6 722.477 134.4 722.477C144.2 722.477 152.9 720.277 160.5 715.877C168.1 711.477 174.1 705.577 178.5 698.177C182.7 690.577 184.8 681.977 184.8 672.377ZM210.9 672.377C210.9 687.177 207.6 700.477 201 712.277C194.2 724.077 185 733.377 173.4 740.177C161.8 746.977 148.8 750.377 134.4 750.377C120 750.377 107.1 746.977 95.6999 740.177C84.0999 733.377 74.9999 724.077 68.3999 712.277C61.7999 700.477 58.4999 687.177 58.4999 672.377C58.4999 657.577 61.7999 644.277 68.3999 632.477C74.9999 620.677 84.0999 611.377 95.6999 604.577C107.1 597.777 120 594.377 134.4 594.377C149 594.377 162.1 597.777 173.7 604.577C185.1 611.377 194.2 620.677 201 632.477C207.6 644.277 210.9 657.577 210.9 672.377ZM61.4999 540.682L80.9999 540.682C77.1999 537.082 73.7999 532.882 70.7999 528.082C64.5999 518.082 61.4999 506.182 61.4999 492.382L61.4999 469.282L88.1999 469.282L88.1999 496.582C88.1999 510.182 91.9999 520.882 99.5999 528.682C107.2 536.282 118 540.082 132 540.082L207.9 540.082L207.9 567.082L61.4999 567.082L61.4999 540.682ZM61.4999 418.5L207.9 418.5L207.9 445.5L61.4999 445.5L61.4999 418.5ZM41.6999 432C41.6999 437.4 39.8999 441.9 36.2999 445.5C32.6999 449.1 28.1999 450.9 22.7999 450.9C17.5999 450.9 13.1999 449.1 9.59988 445.5C5.99988 441.9 4.19988 437.4 4.19988 432C4.19988 426.8 5.99988 422.4 9.59988 418.8C13.1999 415.2 17.5999 413.4 22.7999 413.4C28.1999 413.4 32.6999 415.2 36.2999 418.8C39.8999 422.4 41.6999 426.8 41.6999 432ZM184.8 313.198C184.8 303.598 182.7 295.098 178.5 287.698C174.1 280.098 168.1 274.098 160.5 269.698C152.9 265.298 144.2 263.098 134.4 263.098C124.6 263.098 116 265.298 108.6 269.698C101.2 274.098 95.3999 280.098 91.1999 287.698C86.7999 295.098 84.5999 303.598 84.5999 313.198C84.5999 322.798 86.6999 331.398 90.8999 338.998C95.0999 346.398 101 352.298 108.6 356.698C116 361.098 124.6 363.298 134.4 363.298C144.2 363.298 152.9 361.098 160.5 356.698C168.1 352.298 174.1 346.398 178.5 338.998C182.7 331.398 184.8 322.798 184.8 313.198ZM210.9 313.198C210.9 327.998 207.6 341.298 201 353.098C194.2 364.898 185 374.198 173.4 380.998C161.8 387.798 148.8 391.198 134.4 391.198C120 391.198 107.1 387.798 95.6999 380.998C84.0999 374.198 74.9999 364.898 68.3999 353.098C61.7999 341.298 58.4999 327.998 58.4999 313.198C58.4999 298.398 61.7999 285.098 68.3999 273.298C74.9999 261.498 84.0999 252.198 95.6999 245.398C107.1 238.598 120 235.198 134.4 235.198C149 235.198 162.1 238.598 173.7 245.398C185.1 252.198 194.2 261.498 201 273.298C207.6 285.098 210.9 298.398 210.9 313.198ZM-0.000128549 180.902L207.9 180.902L207.9 207.902L-0.000127369 207.902L-0.000128549 180.902ZM145.2 15.3001L145.2 125.7C151.8 124.9 157.6 123 162.6 120C170.4 115.6 176.3 109.6 180.3 102C184.1 94.2001 186 85.5001 186 75.9001C186 68.5001 184.8 61.5001 182.4 54.9001C179.8 48.3001 175.8 42.5001 170.4 37.5001C165 32.3001 158 28.5001 149.4 26.1001L160.2 0.90006C172.2 4.90006 182 10.8001 189.6 18.6001C197 26.2001 202.4 35.0001 205.8 45.0001C209.2 54.8001 210.9 65.1001 210.9 75.9001C210.9 91.3001 207.6 104.9 201 116.7C194.4 128.3 185.4 137.4 174 144C162.4 150.4 149.2 153.6 134.4 153.6C119.6 153.6 106.5 150.2 95.0999 143.4C83.6999 136.6 74.7999 127.4 68.3999 115.8C61.7999 104 58.4999 90.8001 58.4999 76.2001C58.4999 61.6001 61.6999 48.6001 68.0999 37.2001C74.4999 25.8001 83.3999 16.8001 94.7999 10.2001C106.2 3.40005 119.4 5.53903e-05 134.4 5.47347e-05C136 5.46647e-05 137.8 0.100053 139.8 0.300051C141.6 0.300051 143.4 0.400049 145.2 0.600047L145.2 15.3001ZM122.1 27.6001C111.5 29.4001 102.9 33.8001 96.2999 40.8001C87.6999 50.2001 83.3999 62.0001 83.3999 76.2001C83.3999 85.8001 85.3999 94.4001 89.3999 102C93.1999 109.6 98.8999 115.6 106.5 120C111.1 122.6 116.3 124.5 122.1 125.7L122.1 27.6001Z" fill="#333333"/>
</svg>
