<svg width="159" height="45" viewBox="0 0 159 45" fill="none" xmlns="http://www.w3.org/2000/svg">
<path d="M16.3199 40.704C18.5812 40.704 20.6079 40.2134 22.3999 39.232C24.1919 38.208 25.5999 36.8 26.6239 35.008C27.6479 33.216 28.1599 31.1467 28.1599 28.8C28.1599 26.4534 27.6479 24.4054 26.6239 22.656C25.5999 20.864 24.1919 19.4774 22.3999 18.496C20.6079 17.472 18.5812 16.96 16.3199 16.96C14.0585 16.96 12.0319 17.472 10.2399 18.496C8.49054 19.4774 7.08254 20.864 6.01588 22.656C4.99188 24.4054 4.47988 26.4534 4.47988 28.8C4.47988 31.1467 4.99188 33.216 6.01588 35.008C7.08254 36.8 8.49054 38.208 10.2399 39.232C12.0319 40.2134 14.0585 40.704 16.3199 40.704ZM16.3199 44.992C13.2052 44.992 10.4105 44.288 7.93588 42.88C5.46121 41.472 3.51988 39.5307 2.11188 37.056C0.703878 34.5814 -0.000122225 31.8294 -0.000122225 28.8C-0.000122225 25.728 0.703878 22.976 2.11188 20.544C3.51988 18.112 5.46121 16.2134 7.93588 14.848C10.4532 13.44 13.2479 12.736 16.3199 12.736C19.4345 12.736 22.2292 13.44 24.7039 14.848C27.1785 16.2134 29.1199 18.1334 30.5279 20.608C31.9785 23.04 32.7039 25.7707 32.7039 28.8C32.7039 31.872 31.9785 34.624 30.5279 37.056C29.1199 39.488 27.1785 41.4294 24.7039 42.88C22.2292 44.288 19.4345 44.992 16.3199 44.992ZM43.5799 13.376V18.304C44.4759 17.152 45.5639 16.1707 46.8439 15.36C48.9345 14.0374 51.4305 13.376 54.3319 13.376H59.7079V17.664H53.8839C50.6839 17.664 48.1665 18.6027 46.3319 20.48C44.5399 22.3574 43.6439 25.0027 43.6439 28.416V44.352H39.2919L39.2919 13.376H43.5799ZM69.7064 13.376V44.352H65.3544V13.376H69.7064ZM67.5304 8.12805C66.549 8.12805 65.7384 7.80805 65.0984 7.16805C64.4584 6.52805 64.1384 5.71738 64.1384 4.73605C64.1384 3.84005 64.4584 3.07205 65.0984 2.43205C65.7384 1.79205 66.549 1.47205 67.5304 1.47205C68.469 1.47205 69.2584 1.79205 69.8984 2.43205C70.5384 3.07205 70.8584 3.84005 70.8584 4.73605C70.8584 5.71738 70.5384 6.52805 69.8984 7.16805C69.2584 7.80805 68.469 8.12805 67.5304 8.12805ZM92.6324 40.704C94.8937 40.704 96.9204 40.2134 98.7124 39.232C100.504 38.208 101.912 36.8 102.936 35.008C103.96 33.216 104.472 31.1467 104.472 28.8C104.472 26.4534 103.96 24.4054 102.936 22.656C101.912 20.864 100.504 19.4774 98.7124 18.496C96.9204 17.472 94.8937 16.96 92.6324 16.96C90.371 16.96 88.3444 17.472 86.5524 18.496C84.803 19.4774 83.395 20.864 82.3284 22.656C81.3044 24.4054 80.7924 26.4534 80.7924 28.8C80.7924 31.1467 81.3044 33.216 82.3284 35.008C83.395 36.8 84.803 38.208 86.5524 39.232C88.3444 40.2134 90.371 40.704 92.6324 40.704ZM92.6324 44.992C89.5177 44.992 86.723 44.288 84.2484 42.88C81.7737 41.472 79.8324 39.5307 78.4244 37.056C77.0164 34.5814 76.3124 31.8294 76.3124 28.8C76.3124 25.728 77.0164 22.976 78.4244 20.544C79.8324 18.112 81.7737 16.2134 84.2484 14.848C86.7657 13.44 89.5604 12.736 92.6324 12.736C95.747 12.736 98.5417 13.44 101.016 14.848C103.491 16.2134 105.432 18.1334 106.84 20.608C108.291 23.04 109.016 25.7707 109.016 28.8C109.016 31.872 108.291 34.624 106.84 37.056C105.432 39.488 103.491 41.4294 101.016 42.88C98.5417 44.288 95.747 44.992 92.6324 44.992ZM119.956 4.84796e-05V44.352H115.604V4.84796e-05L119.956 4.84796e-05ZM155.618 30.528H130.978C131.192 32.4054 131.682 34.0267 132.45 35.392C133.517 37.184 134.946 38.5494 136.738 39.488C138.573 40.384 140.642 40.832 142.946 40.832C144.653 40.832 146.274 40.5547 147.81 40C149.389 39.4027 150.754 38.464 151.906 37.184C153.101 35.8614 153.976 34.1547 154.53 32.064L158.754 33.664C157.944 36.3947 156.728 38.592 155.106 40.256C153.485 41.92 151.608 43.136 149.474 43.904C147.384 44.6294 145.208 44.992 142.946 44.992C139.661 44.992 136.781 44.3094 134.306 42.944C131.874 41.536 129.976 39.616 128.61 37.184C127.245 34.7094 126.562 31.9147 126.562 28.8C126.562 25.6427 127.266 22.8694 128.674 20.48C130.125 18.048 132.066 16.1494 134.498 14.784C136.973 13.4187 139.768 12.736 142.882 12.736C145.912 12.736 148.621 13.4187 151.01 14.784C153.4 16.1067 155.298 17.9627 156.706 20.352C158.114 22.7414 158.818 25.5574 158.818 28.8C158.818 29.056 158.797 29.3334 158.754 29.632C158.754 29.9307 158.733 30.2294 158.69 30.528H155.618ZM154.338 26.688C153.997 23.8294 152.93 21.568 151.138 19.904C148.962 17.856 146.21 16.832 142.882 16.832C140.621 16.832 138.573 17.3014 136.738 18.24C134.946 19.136 133.517 20.48 132.45 22.272C131.725 23.552 131.256 25.024 131.042 26.688H154.338Z" fill="#333333"/>
</svg>
