<svg width="213" height="753" viewBox="0 0 213 753" fill="none" xmlns="http://www.w3.org/2000/svg">
<mask id="path-1-outside-1_134_424" maskUnits="userSpaceOnUse" x="-0.0998868" y="-0.983411" width="213" height="754" fill="black">
<rect fill="white" x="-0.0998868" y="-0.983411" width="213" height="754"/>
<path d="M185.8 673.378C185.8 663.778 183.7 655.278 179.5 647.878C175.1 640.278 169.1 634.278 161.5 629.878C153.9 625.478 145.2 623.278 135.4 623.278C125.6 623.278 117 625.478 109.6 629.878C102.2 634.278 96.4001 640.278 92.2001 647.878C87.8001 655.278 85.6001 663.778 85.6001 673.378C85.6001 682.978 87.7001 691.578 91.9001 699.178C96.1001 706.578 102 712.478 109.6 716.878C117 721.278 125.6 723.478 135.4 723.478C145.2 723.478 153.9 721.278 161.5 716.878C169.1 712.478 175.1 706.578 179.5 699.178C183.7 691.578 185.8 682.978 185.8 673.378ZM211.9 673.378C211.9 688.178 208.6 701.478 202 713.278C195.2 725.078 186 734.378 174.4 741.178C162.8 747.978 149.8 751.378 135.4 751.378C121 751.378 108.1 747.978 96.7001 741.178C85.1001 734.378 76.0001 725.078 69.4001 713.278C62.8001 701.478 59.5001 688.178 59.5001 673.378C59.5001 658.578 62.8001 645.278 69.4001 633.478C76.0001 621.678 85.1001 612.378 96.7001 605.578C108.1 598.778 121 595.378 135.4 595.378C150 595.378 163.1 598.778 174.7 605.578C186.1 612.378 195.2 621.678 202 633.478C208.6 645.278 211.9 658.578 211.9 673.378ZM62.5001 541.682L89.2001 541.682L93.1001 541.082L208.9 541.082L208.9 568.082L62.5001 568.082L62.5001 541.682ZM62.5001 470.282L89.2001 470.282L89.2001 497.582C89.2001 511.182 93.0001 521.882 100.6 529.682C108.2 537.282 119 541.082 133 541.082L133 560.282C119.8 560.282 107.9 557.582 97.3001 552.182C86.5001 546.782 78.0001 539.082 71.8001 529.082C65.6001 519.082 62.5001 507.182 62.5001 493.382L62.5001 470.282ZM62.5001 419.5L208.9 419.5L208.9 446.5L62.5001 446.5L62.5001 419.5ZM42.7001 433C42.7001 438.4 40.9001 442.9 37.3001 446.5C33.7001 450.1 29.2001 451.9 23.8001 451.9C18.6001 451.9 14.2001 450.1 10.6001 446.5C7.00013 442.9 5.20013 438.4 5.20013 433C5.20013 427.8 7.00013 423.4 10.6001 419.8C14.2001 416.2 18.6001 414.4 23.8001 414.4C29.2001 414.4 33.7001 416.2 37.3001 419.8C40.9001 423.4 42.7001 427.8 42.7001 433ZM185.8 314.198C185.8 304.598 183.7 296.098 179.5 288.698C175.1 281.098 169.1 275.098 161.5 270.698C153.9 266.298 145.2 264.098 135.4 264.098C125.6 264.098 117 266.298 109.6 270.698C102.2 275.098 96.4001 281.098 92.2001 288.698C87.8001 296.098 85.6001 304.598 85.6001 314.198C85.6001 323.798 87.7001 332.398 91.9001 339.998C96.1001 347.398 102 353.298 109.6 357.698C117 362.098 125.6 364.298 135.4 364.298C145.2 364.298 153.9 362.098 161.5 357.698C169.1 353.298 175.1 347.398 179.5 339.998C183.7 332.398 185.8 323.798 185.8 314.198ZM211.9 314.198C211.9 328.998 208.6 342.298 202 354.098C195.2 365.898 186 375.198 174.4 381.998C162.8 388.798 149.8 392.198 135.4 392.198C121 392.198 108.1 388.798 96.7001 381.998C85.1001 375.198 76.0001 365.898 69.4001 354.098C62.8001 342.298 59.5001 328.998 59.5001 314.198C59.5001 299.398 62.8001 286.098 69.4001 274.298C76.0001 262.498 85.1001 253.198 96.7001 246.398C108.1 239.598 121 236.198 135.4 236.198C150 236.198 163.1 239.598 174.7 246.398C186.1 253.198 195.2 262.498 202 274.298C208.6 286.098 211.9 299.398 211.9 314.198ZM1.00012 181.903L208.9 181.903L208.9 208.903L1.00012 208.903L1.00012 181.903ZM135.4 27.7002C118.8 27.7002 106.2 32.4002 97.6001 41.8002C88.8001 51.2002 84.4001 63.0002 84.4001 77.2002C84.4001 86.8002 86.4001 95.4002 90.4001 103C94.2001 110.6 99.9001 116.6 107.5 121C115.1 125.4 124.4 127.6 135.4 127.6C146.6 127.6 156.1 125.4 163.9 121C171.5 116.6 177.3 110.6 181.3 103C185.1 95.2002 187 86.5002 187 76.9002C187 69.5002 185.8 62.5002 183.4 55.9002C180.8 49.3002 176.8 43.5002 171.4 38.5002C166 33.3002 159 29.5002 150.4 27.1002L161.2 1.90018C173.2 5.90018 183 11.8002 190.6 19.6002C198 27.2002 203.4 36.0002 206.8 46.0002C210.2 55.8002 211.9 66.1002 211.9 76.9002C211.9 92.3002 208.6 105.9 202 117.7C195.4 129.3 186.4 138.4 175 145C163.4 151.4 150.2 154.6 135.4 154.6C120.6 154.6 107.5 151.2 96.1001 144.4C84.7001 137.6 75.8001 128.4 69.4001 116.8C62.8001 105 59.5001 91.8002 59.5001 77.2002C59.5001 62.6002 62.7001 49.6002 69.1001 38.2002C75.5001 26.8002 84.4001 17.8002 95.8001 11.2002C107.2 4.40018 120.4 1.00018 135.4 1.00018C137 1.00018 138.8 1.10018 140.8 1.30017C142.6 1.30017 144.4 1.40017 146.2 1.60017L146.2 16.3002L135.4 27.7002ZM146.2 139.3L123.1 138.4L123.1 6.40018L146.2 6.40018L146.2 139.3Z"/>
</mask>
<path d="M185.8 673.378C185.8 663.778 183.7 655.278 179.5 647.878C175.1 640.278 169.1 634.278 161.5 629.878C153.9 625.478 145.2 623.278 135.4 623.278C125.6 623.278 117 625.478 109.6 629.878C102.2 634.278 96.4001 640.278 92.2001 647.878C87.8001 655.278 85.6001 663.778 85.6001 673.378C85.6001 682.978 87.7001 691.578 91.9001 699.178C96.1001 706.578 102 712.478 109.6 716.878C117 721.278 125.6 723.478 135.4 723.478C145.2 723.478 153.9 721.278 161.5 716.878C169.1 712.478 175.1 706.578 179.5 699.178C183.7 691.578 185.8 682.978 185.8 673.378ZM211.9 673.378C211.9 688.178 208.6 701.478 202 713.278C195.2 725.078 186 734.378 174.4 741.178C162.8 747.978 149.8 751.378 135.4 751.378C121 751.378 108.1 747.978 96.7001 741.178C85.1001 734.378 76.0001 725.078 69.4001 713.278C62.8001 701.478 59.5001 688.178 59.5001 673.378C59.5001 658.578 62.8001 645.278 69.4001 633.478C76.0001 621.678 85.1001 612.378 96.7001 605.578C108.1 598.778 121 595.378 135.4 595.378C150 595.378 163.1 598.778 174.7 605.578C186.1 612.378 195.2 621.678 202 633.478C208.6 645.278 211.9 658.578 211.9 673.378ZM62.5001 541.682L89.2001 541.682L93.1001 541.082L208.9 541.082L208.9 568.082L62.5001 568.082L62.5001 541.682ZM62.5001 470.282L89.2001 470.282L89.2001 497.582C89.2001 511.182 93.0001 521.882 100.6 529.682C108.2 537.282 119 541.082 133 541.082L133 560.282C119.8 560.282 107.9 557.582 97.3001 552.182C86.5001 546.782 78.0001 539.082 71.8001 529.082C65.6001 519.082 62.5001 507.182 62.5001 493.382L62.5001 470.282ZM62.5001 419.5L208.9 419.5L208.9 446.5L62.5001 446.5L62.5001 419.5ZM42.7001 433C42.7001 438.4 40.9001 442.9 37.3001 446.5C33.7001 450.1 29.2001 451.9 23.8001 451.9C18.6001 451.9 14.2001 450.1 10.6001 446.5C7.00013 442.9 5.20013 438.4 5.20013 433C5.20013 427.8 7.00013 423.4 10.6001 419.8C14.2001 416.2 18.6001 414.4 23.8001 414.4C29.2001 414.4 33.7001 416.2 37.3001 419.8C40.9001 423.4 42.7001 427.8 42.7001 433ZM185.8 314.198C185.8 304.598 183.7 296.098 179.5 288.698C175.1 281.098 169.1 275.098 161.5 270.698C153.9 266.298 145.2 264.098 135.4 264.098C125.6 264.098 117 266.298 109.6 270.698C102.2 275.098 96.4001 281.098 92.2001 288.698C87.8001 296.098 85.6001 304.598 85.6001 314.198C85.6001 323.798 87.7001 332.398 91.9001 339.998C96.1001 347.398 102 353.298 109.6 357.698C117 362.098 125.6 364.298 135.4 364.298C145.2 364.298 153.9 362.098 161.5 357.698C169.1 353.298 175.1 347.398 179.5 339.998C183.7 332.398 185.8 323.798 185.8 314.198ZM211.9 314.198C211.9 328.998 208.6 342.298 202 354.098C195.2 365.898 186 375.198 174.4 381.998C162.8 388.798 149.8 392.198 135.4 392.198C121 392.198 108.1 388.798 96.7001 381.998C85.1001 375.198 76.0001 365.898 69.4001 354.098C62.8001 342.298 59.5001 328.998 59.5001 314.198C59.5001 299.398 62.8001 286.098 69.4001 274.298C76.0001 262.498 85.1001 253.198 96.7001 246.398C108.1 239.598 121 236.198 135.4 236.198C150 236.198 163.1 239.598 174.7 246.398C186.1 253.198 195.2 262.498 202 274.298C208.6 286.098 211.9 299.398 211.9 314.198ZM1.00012 181.903L208.9 181.903L208.9 208.903L1.00012 208.903L1.00012 181.903ZM135.4 27.7002C118.8 27.7002 106.2 32.4002 97.6001 41.8002C88.8001 51.2002 84.4001 63.0002 84.4001 77.2002C84.4001 86.8002 86.4001 95.4002 90.4001 103C94.2001 110.6 99.9001 116.6 107.5 121C115.1 125.4 124.4 127.6 135.4 127.6C146.6 127.6 156.1 125.4 163.9 121C171.5 116.6 177.3 110.6 181.3 103C185.1 95.2002 187 86.5002 187 76.9002C187 69.5002 185.8 62.5002 183.4 55.9002C180.8 49.3002 176.8 43.5002 171.4 38.5002C166 33.3002 159 29.5002 150.4 27.1002L161.2 1.90018C173.2 5.90018 183 11.8002 190.6 19.6002C198 27.2002 203.4 36.0002 206.8 46.0002C210.2 55.8002 211.9 66.1002 211.9 76.9002C211.9 92.3002 208.6 105.9 202 117.7C195.4 129.3 186.4 138.4 175 145C163.4 151.4 150.2 154.6 135.4 154.6C120.6 154.6 107.5 151.2 96.1001 144.4C84.7001 137.6 75.8001 128.4 69.4001 116.8C62.8001 105 59.5001 91.8002 59.5001 77.2002C59.5001 62.6002 62.7001 49.6002 69.1001 38.2002C75.5001 26.8002 84.4001 17.8002 95.8001 11.2002C107.2 4.40018 120.4 1.00018 135.4 1.00018C137 1.00018 138.8 1.10018 140.8 1.30017C142.6 1.30017 144.4 1.40017 146.2 1.60017L146.2 16.3002L135.4 27.7002ZM146.2 139.3L123.1 138.4L123.1 6.40018L146.2 6.40018L146.2 139.3Z" fill="white"/>
<path d="M179.5 647.878L180.37 647.384L180.366 647.376L179.5 647.878ZM161.5 629.878L160.999 630.743L160.999 630.743L161.5 629.878ZM109.6 629.878L110.111 630.737L110.111 630.737L109.6 629.878ZM92.2001 647.878L93.0597 648.389L93.0677 648.375L93.0754 648.361L92.2001 647.878ZM91.9001 699.178L91.0248 699.661L91.0305 699.671L91.9001 699.178ZM109.6 716.878L110.111 716.018L110.101 716.012L109.6 716.878ZM161.5 716.878L162.001 717.743L162.001 717.743L161.5 716.878ZM179.5 699.178L180.36 699.689L180.368 699.675L180.375 699.661L179.5 699.178ZM202 713.278L202.867 713.777L202.873 713.766L202 713.278ZM174.4 741.178L174.906 742.04L174.906 742.04L174.4 741.178ZM96.7001 741.178L97.2124 740.319L97.2059 740.315L96.7001 741.178ZM69.4001 713.278L68.5274 713.766L68.5274 713.766L69.4001 713.278ZM69.4001 633.478L68.5274 632.989L68.5274 632.989L69.4001 633.478ZM96.7001 605.578L97.2059 606.44L97.2124 606.436L96.7001 605.578ZM174.7 605.578L175.212 604.719L175.206 604.715L174.7 605.578ZM202 633.478L202.873 632.989L202.867 632.978L202 633.478ZM185.8 673.378L186.8 673.378C186.8 663.627 184.666 654.953 180.37 647.384L179.5 647.878L178.63 648.371C182.735 655.602 184.8 663.928 184.8 673.378L185.8 673.378ZM179.5 647.878L180.366 647.376C175.878 639.625 169.752 633.5 162.001 629.012L161.5 629.878L160.999 630.743C168.448 635.055 174.322 640.93 178.635 648.379L179.5 647.878ZM161.5 629.878L162.001 629.012C154.232 624.514 145.355 622.278 135.4 622.278L135.4 623.278L135.4 624.278C145.045 624.278 153.568 626.441 160.999 630.743L161.5 629.878ZM135.4 623.278L135.4 622.278C125.446 622.278 116.664 624.514 109.089 629.018L109.6 629.878L110.111 630.737C117.336 626.441 125.755 624.278 135.4 624.278L135.4 623.278ZM109.6 629.878L109.089 629.018C101.535 633.51 95.61 639.64 91.3249 647.394L92.2001 647.878L93.0754 648.361C97.1903 640.915 102.865 635.046 110.111 630.737L109.6 629.878ZM92.2001 647.878L91.3406 647.366C86.8384 654.938 84.6001 663.619 84.6001 673.378L85.6001 673.378L86.6001 673.378C86.6001 663.936 88.7619 655.617 93.0597 648.389L92.2001 647.878ZM85.6001 673.378L84.6001 673.378C84.6001 683.128 86.7347 691.898 91.0249 699.661L91.9001 699.178L92.7754 698.694C88.6656 691.257 86.6001 682.827 86.6001 673.378L85.6001 673.378ZM91.9001 699.178L91.0305 699.671C95.321 707.231 101.351 713.257 109.099 717.743L109.6 716.878L110.101 716.012C102.65 711.698 96.8792 705.924 92.7698 698.684L91.9001 699.178ZM109.6 716.878L109.089 717.737C116.664 722.241 125.446 724.478 135.4 724.478L135.4 723.478L135.4 722.478C125.755 722.478 117.336 720.314 110.111 716.018L109.6 716.878ZM135.4 723.478L135.4 724.478C145.355 724.478 154.232 722.241 162.001 717.743L161.5 716.878L160.999 716.012C153.568 720.314 145.045 722.478 135.4 722.478L135.4 723.478ZM161.5 716.878L162.001 717.743C169.746 713.259 175.871 707.238 180.36 699.689L179.5 699.178L178.641 698.666C174.33 705.917 168.454 711.696 160.999 716.012L161.5 716.878ZM179.5 699.178L180.375 699.661C184.666 691.898 186.8 683.128 186.8 673.378L185.8 673.378L184.8 673.378C184.8 682.827 182.735 691.257 178.625 698.694L179.5 699.178ZM211.9 673.378L210.9 673.378C210.9 688.023 207.636 701.152 201.127 712.789L202 713.278L202.873 713.766C209.564 701.803 212.9 688.332 212.9 673.378L211.9 673.378ZM202 713.278L201.134 712.778C194.419 724.43 185.343 733.604 173.894 740.315L174.4 741.178L174.906 742.04C186.658 735.151 195.981 725.725 202.867 713.777L202 713.278ZM174.4 741.178L173.894 740.315C162.459 747.019 149.635 750.378 135.4 750.378L135.4 751.378L135.4 752.378C149.965 752.378 163.142 748.937 174.906 742.04L174.4 741.178ZM135.4 751.378L135.4 750.378C121.165 750.378 108.444 747.019 97.2124 740.319L96.7001 741.178L96.1879 742.036C107.756 748.937 120.836 752.378 135.4 752.378L135.4 751.378ZM96.7001 741.178L97.2059 740.315C85.7602 733.605 76.7866 724.435 70.2729 712.789L69.4001 713.278L68.5274 713.766C75.2137 725.72 84.44 735.15 96.1944 742.04L96.7001 741.178ZM69.4001 713.278L70.2729 712.789C63.7641 701.152 60.5001 688.023 60.5001 673.378L59.5001 673.378L58.5001 673.378C58.5001 688.332 61.8362 701.803 68.5274 713.766L69.4001 713.278ZM59.5001 673.378L60.5001 673.378C60.5001 658.732 63.7641 645.603 70.2729 633.966L69.4001 633.478L68.5274 632.989C61.8362 644.952 58.5001 658.423 58.5001 673.378L59.5001 673.378ZM69.4001 633.478L70.2729 633.966C76.7865 622.32 85.7602 613.15 97.2059 606.44L96.7001 605.578L96.1944 604.715C84.44 611.605 75.2137 621.035 68.5274 632.989L69.4001 633.478ZM96.7001 605.578L97.2124 606.436C108.444 599.737 121.165 596.378 135.4 596.378L135.4 595.378L135.4 594.378C120.836 594.378 107.756 597.819 96.1879 604.719L96.7001 605.578ZM135.4 595.378L135.4 596.378C149.838 596.378 162.761 599.738 174.194 606.44L174.7 605.578L175.206 604.715C163.439 597.817 150.162 594.378 135.4 594.378L135.4 595.378ZM174.7 605.578L174.188 606.436C185.437 613.146 194.417 622.321 201.134 633.977L202 633.478L202.867 632.978C195.984 621.034 186.763 611.609 175.212 604.719L174.7 605.578ZM202 633.478L201.127 633.966C207.636 645.603 210.9 658.732 210.9 673.378L211.9 673.378L212.9 673.378C212.9 658.423 209.564 644.952 202.873 632.989L202 633.478ZM62.5001 541.682L62.5001 540.682L61.5001 540.682L61.5001 541.682L62.5001 541.682ZM89.2001 541.682L89.2001 542.682L89.2766 542.682L89.3522 542.671L89.2001 541.682ZM93.1001 541.082L93.1001 540.082L93.0237 540.082L92.9481 540.094L93.1001 541.082ZM208.9 541.082L209.9 541.082L209.9 540.082L208.9 540.082L208.9 541.082ZM208.9 568.082L208.9 569.082L209.9 569.082L209.9 568.082L208.9 568.082ZM62.5001 568.082L61.5001 568.082L61.5001 569.082L62.5001 569.082L62.5001 568.082ZM62.5001 470.282L62.5001 469.282L61.5001 469.282L61.5001 470.282L62.5001 470.282ZM89.2001 470.282L90.2001 470.282L90.2001 469.282L89.2001 469.282L89.2001 470.282ZM100.6 529.682L99.8838 530.38L99.893 530.389L100.6 529.682ZM133 541.082L134 541.082L134 540.082L133 540.082L133 541.082ZM133 560.282L133 561.282L134 561.282L134 560.282L133 560.282ZM97.3001 552.182L97.7541 551.291L97.7473 551.288L97.3001 552.182ZM71.8001 529.082L72.65 528.555L72.65 528.555L71.8001 529.082ZM62.5001 541.682L62.5001 542.682L89.2001 542.682L89.2001 541.682L89.2001 540.682L62.5001 540.682L62.5001 541.682ZM89.2001 541.682L89.3522 542.671L93.2522 542.071L93.1001 541.082L92.9481 540.094L89.0481 540.694L89.2001 541.682ZM93.1001 541.082L93.1001 542.082L208.9 542.082L208.9 541.082L208.9 540.082L93.1001 540.082L93.1001 541.082ZM208.9 541.082L207.9 541.082L207.9 568.082L208.9 568.082L209.9 568.082L209.9 541.082L208.9 541.082ZM208.9 568.082L208.9 567.082L62.5001 567.082L62.5001 568.082L62.5001 569.082L208.9 569.082L208.9 568.082ZM62.5001 568.082L63.5001 568.082L63.5001 541.682L62.5001 541.682L61.5001 541.682L61.5001 568.082L62.5001 568.082ZM62.5001 470.282L62.5001 471.282L89.2001 471.282L89.2001 470.282L89.2001 469.282L62.5001 469.282L62.5001 470.282ZM89.2001 470.282L88.2001 470.282L88.2001 497.582L89.2001 497.582L90.2001 497.582L90.2001 470.282L89.2001 470.282ZM89.2001 497.582L88.2001 497.582C88.2001 511.375 92.0593 522.35 99.8839 530.38L100.6 529.682L101.316 528.984C93.941 521.415 90.2001 510.99 90.2001 497.582L89.2001 497.582ZM100.6 529.682L99.893 530.389C107.732 538.229 118.819 542.082 133 542.082L133 541.082L133 540.082C119.182 540.082 108.668 536.336 101.307 528.975L100.6 529.682ZM133 541.082L132 541.082L132 560.282L133 560.282L134 560.282L134 541.082L133 541.082ZM133 560.282L133 559.282C119.94 559.282 108.199 556.612 97.7541 551.291L97.3001 552.182L96.8462 553.073C107.602 558.552 119.66 561.282 133 561.282L133 560.282ZM97.3001 552.182L97.7473 551.288C87.1084 545.968 78.7498 538.394 72.65 528.555L71.8001 529.082L70.9502 529.609C77.2505 539.771 85.8918 547.596 96.8529 553.077L97.3001 552.182ZM71.8001 529.082L72.65 528.555C66.564 518.739 63.5001 507.029 63.5001 493.382L62.5001 493.382L61.5001 493.382C61.5001 507.336 64.6362 519.425 70.9502 529.609L71.8001 529.082ZM62.5001 493.382L63.5001 493.382L63.5001 470.282L62.5001 470.282L61.5001 470.282L61.5001 493.382L62.5001 493.382ZM62.5001 419.5L62.5001 418.5L61.5001 418.5L61.5001 419.5L62.5001 419.5ZM208.9 419.5L209.9 419.5L209.9 418.5L208.9 418.5L208.9 419.5ZM208.9 446.5L208.9 447.5L209.9 447.5L209.9 446.5L208.9 446.5ZM62.5001 446.5L61.5001 446.5L61.5001 447.5L62.5001 447.5L62.5001 446.5ZM10.6001 419.8L11.3072 420.507L11.3072 420.507L10.6001 419.8ZM37.3001 419.8L36.593 420.507L36.593 420.507L37.3001 419.8ZM62.5001 419.5L62.5001 420.5L208.9 420.5L208.9 419.5L208.9 418.5L62.5001 418.5L62.5001 419.5ZM208.9 419.5L207.9 419.5L207.9 446.5L208.9 446.5L209.9 446.5L209.9 419.5L208.9 419.5ZM208.9 446.5L208.9 445.5L62.5001 445.5L62.5001 446.5L62.5001 447.5L208.9 447.5L208.9 446.5ZM62.5001 446.5L63.5001 446.5L63.5001 419.5L62.5001 419.5L61.5001 419.5L61.5001 446.5L62.5001 446.5ZM42.7001 433L41.7001 433C41.7001 438.153 39.9932 442.393 36.593 445.793L37.3001 446.5L38.0072 447.207C41.807 443.407 43.7001 438.648 43.7001 433L42.7001 433ZM37.3001 446.5L36.593 445.793C33.1928 449.193 28.9528 450.9 23.8001 450.9L23.8001 451.9L23.8001 452.9C29.4475 452.9 34.2074 451.007 38.0072 447.207L37.3001 446.5ZM23.8001 451.9L23.8001 450.9C18.859 450.9 14.7153 449.201 11.3072 445.793L10.6001 446.5L9.89302 447.207C13.685 450.999 18.3413 452.9 23.8001 452.9L23.8001 451.9ZM10.6001 446.5L11.3072 445.793C7.90703 442.393 6.20013 438.153 6.20013 433L5.20013 433L4.20013 433C4.20013 438.648 6.09323 443.408 9.89302 447.207L10.6001 446.5ZM5.20013 433L6.20013 433C6.20013 428.059 7.89922 423.915 11.3072 420.507L10.6001 419.8L9.89302 419.093C6.10104 422.885 4.20013 427.541 4.20013 433L5.20013 433ZM10.6001 419.8L11.3072 420.507C14.7153 417.099 18.859 415.4 23.8001 415.4L23.8001 414.4L23.8001 413.4C18.3413 413.4 13.685 415.301 9.89302 419.093L10.6001 419.8ZM23.8001 414.4L23.8001 415.4C28.9528 415.4 33.1928 417.107 36.593 420.507L37.3001 419.8L38.0072 419.093C34.2074 415.293 29.4475 413.4 23.8001 413.4L23.8001 414.4ZM37.3001 419.8L36.593 420.507C40.001 423.915 41.7001 428.059 41.7001 433L42.7001 433L43.7001 433C43.7001 427.541 41.7992 422.885 38.0072 419.093L37.3001 419.8ZM179.5 288.698L180.37 288.204L180.366 288.197L179.5 288.698ZM161.5 270.698L160.999 271.563L160.999 271.563L161.5 270.698ZM109.6 270.698L110.111 271.557L110.111 271.557L109.6 270.698ZM92.2001 288.698L93.0597 289.209L93.0677 289.195L93.0754 289.182L92.2001 288.698ZM91.9001 339.998L91.0248 340.482L91.0304 340.491L91.9001 339.998ZM109.6 357.698L110.111 356.838L110.101 356.832L109.6 357.698ZM161.5 357.698L162.001 358.563L162.001 358.563L161.5 357.698ZM179.5 339.998L180.36 340.509L180.368 340.495L180.375 340.482L179.5 339.998ZM202 354.098L202.867 354.597L202.873 354.586L202 354.098ZM174.4 381.998L174.906 382.861L174.906 382.861L174.4 381.998ZM96.7001 381.998L97.2124 381.139L97.2058 381.135L96.7001 381.998ZM69.4001 354.098L68.5274 354.586L68.5274 354.586L69.4001 354.098ZM69.4001 274.298L68.5274 273.81L68.5274 273.81L69.4001 274.298ZM96.7001 246.398L97.2059 247.261L97.2124 247.257L96.7001 246.398ZM174.7 246.398L175.212 245.539L175.206 245.535L174.7 246.398ZM202 274.298L202.873 273.81L202.867 273.799L202 274.298ZM185.8 314.198L186.8 314.198C186.8 304.447 184.666 295.773 180.37 288.204L179.5 288.698L178.63 289.191C182.735 296.422 184.8 304.748 184.8 314.198L185.8 314.198ZM179.5 288.698L180.366 288.197C175.878 280.446 169.752 274.32 162.001 269.832L161.5 270.698L160.999 271.563C168.448 275.876 174.322 281.75 178.635 289.199L179.5 288.698ZM161.5 270.698L162.001 269.832C154.232 265.334 145.355 263.098 135.4 263.098L135.4 264.098L135.4 265.098C145.045 265.098 153.568 267.261 160.999 271.563L161.5 270.698ZM135.4 264.098L135.4 263.098C125.446 263.098 116.664 265.334 109.089 269.838L109.6 270.698L110.111 271.557C117.336 267.261 125.755 265.098 135.4 265.098L135.4 264.098ZM109.6 270.698L109.089 269.838C101.535 274.33 95.61 280.46 91.3249 288.214L92.2001 288.698L93.0754 289.182C97.1903 281.736 102.865 275.866 110.111 271.557L109.6 270.698ZM92.2001 288.698L91.3406 288.187C86.8384 295.759 84.6001 304.439 84.6001 314.198L85.6001 314.198L86.6001 314.198C86.6001 304.756 88.7619 296.437 93.0597 289.209L92.2001 288.698ZM85.6001 314.198L84.6001 314.198C84.6001 323.949 86.7347 332.718 91.0249 340.482L91.9001 339.998L92.7754 339.514C88.6656 332.077 86.6001 323.647 86.6001 314.198L85.6001 314.198ZM91.9001 339.998L91.0304 340.491C95.321 348.051 101.351 354.077 109.099 358.563L109.6 357.698L110.101 356.832C102.65 352.518 96.8792 346.745 92.7698 339.504L91.9001 339.998ZM109.6 357.698L109.089 358.557C116.664 363.061 125.446 365.298 135.4 365.298L135.4 364.298L135.4 363.298C125.755 363.298 117.336 361.134 110.111 356.838L109.6 357.698ZM135.4 364.298L135.4 365.298C145.355 365.298 154.232 363.061 162.001 358.563L161.5 357.698L160.999 356.832C153.568 361.134 145.045 363.298 135.4 363.298L135.4 364.298ZM161.5 357.698L162.001 358.563C169.746 354.079 175.871 348.059 180.36 340.509L179.5 339.998L178.641 339.487C174.33 346.737 168.454 352.516 160.999 356.832L161.5 357.698ZM179.5 339.998L180.375 340.482C184.666 332.718 186.8 323.949 186.8 314.198L185.8 314.198L184.8 314.198C184.8 323.647 182.735 332.077 178.625 339.514L179.5 339.998ZM211.9 314.198L210.9 314.198C210.9 328.844 207.636 341.973 201.127 353.61L202 354.098L202.873 354.586C209.564 342.623 212.9 329.152 212.9 314.198L211.9 314.198ZM202 354.098L201.134 353.599C194.419 365.25 185.343 374.424 173.894 381.135L174.4 381.998L174.906 382.861C186.658 375.972 195.981 366.545 202.867 354.597L202 354.098ZM174.4 381.998L173.894 381.135C162.459 387.839 149.635 391.198 135.4 391.198L135.4 392.198L135.4 393.198C149.965 393.198 163.142 389.757 174.906 382.861L174.4 381.998ZM135.4 392.198L135.4 391.198C121.165 391.198 108.444 387.839 97.2124 381.139L96.7001 381.998L96.1878 382.857C107.756 389.757 120.836 393.198 135.4 393.198L135.4 392.198ZM96.7001 381.998L97.2058 381.135C85.7602 374.426 76.7865 365.255 70.2729 353.61L69.4001 354.098L68.5274 354.586C75.2137 366.54 84.44 375.97 96.1944 382.861L96.7001 381.998ZM69.4001 354.098L70.2729 353.61C63.7641 341.973 60.5001 328.844 60.5001 314.198L59.5001 314.198L58.5001 314.198C58.5001 329.152 61.8362 342.623 68.5274 354.586L69.4001 354.098ZM59.5001 314.198L60.5001 314.198C60.5001 299.552 63.7641 286.423 70.2729 274.786L69.4001 274.298L68.5274 273.81C61.8362 285.773 58.5001 299.244 58.5001 314.198L59.5001 314.198ZM69.4001 274.298L70.2729 274.786C76.7865 263.14 85.7602 253.97 97.2058 247.261L96.7001 246.398L96.1944 245.535C84.44 252.426 75.2137 261.855 68.5274 273.81L69.4001 274.298ZM96.7001 246.398L97.2124 247.257C108.444 240.557 121.165 237.198 135.4 237.198L135.4 236.198L135.4 235.198C120.836 235.198 107.756 238.639 96.1878 245.539L96.7001 246.398ZM135.4 236.198L135.4 237.198C149.838 237.198 162.761 240.558 174.194 247.261L174.7 246.398L175.206 245.535C163.439 238.638 150.162 235.198 135.4 235.198L135.4 236.198ZM174.7 246.398L174.188 247.257C185.437 253.967 194.417 263.141 201.134 274.797L202 274.298L202.867 273.799C195.983 261.854 186.763 252.429 175.212 245.539L174.7 246.398ZM202 274.298L201.127 274.786C207.636 286.423 210.9 299.552 210.9 314.198L211.9 314.198L212.9 314.198C212.9 299.244 209.564 285.773 202.873 273.81L202 274.298ZM1.00012 181.903L1.00012 180.903L0.000115548 180.903L0.000115592 181.903L1.00012 181.903ZM208.9 181.903L209.9 181.903L209.9 180.903L208.9 180.903L208.9 181.903ZM208.9 208.903L208.9 209.903L209.9 209.903L209.9 208.903L208.9 208.903ZM1.00012 208.903L0.000116772 208.903L0.000116815 209.903L1.00012 209.903L1.00012 208.903ZM1.00012 181.903L1.00012 182.903L208.9 182.903L208.9 181.903L208.9 180.903L1.00012 180.903L1.00012 181.903ZM208.9 181.903L207.9 181.903L207.9 208.903L208.9 208.903L209.9 208.903L209.9 181.903L208.9 181.903ZM208.9 208.903L208.9 207.903L1.00012 207.903L1.00012 208.903L1.00012 209.903L208.9 209.903L208.9 208.903ZM1.00012 208.903L2.00012 208.903L2.00012 181.903L1.00012 181.903L0.000115592 181.903L0.000116772 208.903L1.00012 208.903ZM135.4 27.7002L135.4 28.7002L135.83 28.7002L136.126 28.3879L135.4 27.7002ZM97.6001 41.8002L98.3302 42.4836L98.3379 42.4752L97.6001 41.8002ZM90.4001 103L91.2945 102.553L91.2899 102.544L91.285 102.534L90.4001 103ZM107.5 121L106.999 121.866L106.999 121.866L107.5 121ZM163.9 121L164.391 121.871L164.401 121.866L163.9 121ZM181.3 103L182.185 103.466L182.192 103.452L182.199 103.438L181.3 103ZM183.4 55.9002L184.34 55.5584L184.335 55.546L184.331 55.5336L183.4 55.9002ZM171.4 38.5002L170.706 39.2205L170.714 39.2273L170.721 39.2339L171.4 38.5002ZM150.4 27.1002L149.481 26.7063L149.031 27.7563L150.131 28.0634L150.4 27.1002ZM161.2 1.90018L161.516 0.951499L160.643 0.660527L160.281 1.50626L161.2 1.90018ZM190.6 19.6002L191.317 18.9026L191.316 18.9023L190.6 19.6002ZM206.8 46.0002L205.853 46.3221L205.855 46.3279L206.8 46.0002ZM202 117.7L202.869 118.195L202.873 118.188L202 117.7ZM175 145L175.483 145.876L175.492 145.871L175.501 145.866L175 145ZM96.1001 144.4L95.5878 145.259L95.5878 145.259L96.1001 144.4ZM69.4001 116.8L70.2757 116.317L70.2729 116.312L69.4001 116.8ZM95.8001 11.2002L96.3012 12.0657L96.3124 12.059L95.8001 11.2002ZM140.8 1.30017L140.701 2.29521L140.75 2.30017L140.8 2.30017L140.8 1.30017ZM146.2 1.60017L147.2 1.60017L147.2 0.705124L146.311 0.606285L146.2 1.60017ZM146.2 16.3002L146.926 16.9879L147.2 16.6986L147.2 16.3002L146.2 16.3002ZM146.2 139.3L146.161 140.299L147.2 140.34L147.2 139.3L146.2 139.3ZM123.1 138.4L122.1 138.4L122.1 139.362L123.061 139.399L123.1 138.4ZM123.1 6.40018L123.1 5.40018L122.1 5.40018L122.1 6.40018L123.1 6.40018ZM146.2 6.40018L147.2 6.40018L147.2 5.40018L146.2 5.40018L146.2 6.40018ZM135.4 27.7002L135.4 26.7002C118.609 26.7002 105.705 31.46 96.8623 41.1252L97.6001 41.8002L98.3379 42.4752C106.695 33.3403 118.991 28.7002 135.4 28.7002L135.4 27.7002ZM97.6001 41.8002L96.8701 41.1168C87.8782 50.7218 83.4001 62.7747 83.4001 77.2002L84.4001 77.2002L85.4001 77.2002C85.4001 63.2256 89.722 51.6786 98.3301 42.4836L97.6001 41.8002ZM84.4001 77.2002L83.4001 77.2002C83.4001 86.9431 85.4311 95.7061 89.5152 103.466L90.4001 103L91.285 102.534C87.3692 95.0943 85.4001 86.6573 85.4001 77.2002L84.4001 77.2002ZM90.4001 103L89.5057 103.447C93.3962 111.228 99.2359 117.371 106.999 121.866L107.5 121L108.001 120.135C100.564 115.829 95.0041 109.972 91.2945 102.553L90.4001 103ZM107.5 121L106.999 121.866C114.785 126.373 124.268 128.6 135.4 128.6L135.4 127.6L135.4 126.6C124.532 126.6 115.415 124.427 108.001 120.135L107.5 121ZM135.4 127.6L135.4 128.6C146.73 128.6 156.408 126.374 164.391 121.871L163.9 121L163.409 120.129C155.792 124.426 146.471 126.6 135.4 126.6L135.4 127.6ZM163.9 121L164.401 121.866C172.16 117.373 178.095 111.237 182.185 103.466L181.3 103L180.415 102.534C176.505 109.964 170.84 115.827 163.399 120.135L163.9 121ZM181.3 103L182.199 103.438C186.072 95.4877 188 86.6356 188 76.9002L187 76.9002L186 76.9002C186 86.3648 184.128 94.9126 180.401 102.562L181.3 103ZM187 76.9002L188 76.9002C188 69.3899 186.782 62.2738 184.34 55.5584L183.4 55.9002L182.46 56.2419C184.818 62.7266 186 69.6104 186 76.9002L187 76.9002ZM183.4 55.9002L184.331 55.5336C181.673 48.7887 177.585 42.8645 172.08 37.7664L171.4 38.5002L170.721 39.2339C176.015 44.1359 179.927 49.8117 182.47 56.2667L183.4 55.9002ZM171.4 38.5002L172.094 37.7799C166.554 32.4449 159.398 28.573 150.669 26.137L150.4 27.1002L150.131 28.0634C158.602 30.4273 165.447 34.1555 170.706 39.2205L171.4 38.5002ZM150.4 27.1002L151.319 27.4941L162.119 2.2941L161.2 1.90018L160.281 1.50626L149.481 26.7063L150.4 27.1002ZM161.2 1.90018L160.884 2.84887C172.757 6.80655 182.412 12.6295 189.884 20.298L190.6 19.6002L191.316 18.9023C183.588 10.9708 173.643 4.99381 161.516 0.951499L161.2 1.90018ZM190.6 19.6002L189.884 20.2978C197.18 27.7917 202.501 36.4635 205.853 46.3221L206.8 46.0002L207.747 45.6783C204.299 35.5368 198.82 26.6086 191.317 18.9026L190.6 19.6002ZM206.8 46.0002L205.855 46.3279C209.217 56.0182 210.9 66.2071 210.9 76.9002L211.9 76.9002L212.9 76.9002C212.9 65.9932 211.183 55.5821 207.745 45.6724L206.8 46.0002ZM211.9 76.9002L210.9 76.9002C210.9 92.1534 207.633 105.581 201.127 117.212L202 117.7L202.873 118.188C209.567 106.219 212.9 92.447 212.9 76.9002L211.9 76.9002ZM202 117.7L201.131 117.206C194.617 128.654 185.744 137.625 174.499 144.135L175 145L175.501 145.866C187.057 139.176 196.183 129.947 202.869 118.195L202 117.7ZM175 145L174.517 144.125C163.082 150.434 150.051 153.6 135.4 153.6L135.4 154.6L135.4 155.6C150.349 155.6 163.719 152.367 175.483 145.876L175 145ZM135.4 154.6L135.4 153.6C120.759 153.6 107.84 150.239 96.6124 143.541L96.1001 144.4L95.5878 145.259C107.16 152.162 120.441 155.6 135.4 155.6L135.4 154.6ZM96.1001 144.4L96.6124 143.541C85.3643 136.832 76.5899 127.762 70.2757 116.317L69.4001 116.8L68.5245 117.283C75.0104 129.039 84.0359 138.368 95.5878 145.259L96.1001 144.4ZM69.4001 116.8L70.2729 116.312C63.7629 104.673 60.5001 91.6433 60.5001 77.2002L59.5001 77.2002L58.5001 77.2002C58.5001 91.957 61.8373 105.327 68.5274 117.288L69.4001 116.8ZM59.5001 77.2002L60.5001 77.2002C60.5001 62.7512 63.6655 49.9234 69.9721 38.6897L69.1001 38.2002L68.2281 37.7106C61.7347 49.277 58.5001 62.4492 58.5001 77.2002L59.5001 77.2002ZM69.1001 38.2002L69.9721 38.6897C76.2837 27.4472 85.055 18.5765 96.3011 12.0656L95.8001 11.2002L95.2991 10.3347C83.7452 17.0238 74.7166 26.1531 68.2281 37.7106L69.1001 38.2002ZM95.8001 11.2002L96.3124 12.059C107.538 5.36295 120.557 2.00018 135.4 2.00018L135.4 1.00018L135.4 0.000176805C120.244 0.000177467 106.862 3.4374 95.2878 10.3414L95.8001 11.2002ZM135.4 1.00018L135.4 2.00018C136.96 2.00018 138.726 2.09772 140.701 2.29521L140.8 1.30017L140.9 0.305135C138.874 0.102627 137.04 0.000176733 135.4 0.000176805L135.4 1.00018ZM140.8 1.30017L140.8 2.30017C142.563 2.30017 144.326 2.3981 146.09 2.59405L146.2 1.60017L146.311 0.606285C144.474 0.402238 142.637 0.300173 140.8 0.300173L140.8 1.30017ZM146.2 1.60017L145.2 1.60017L145.2 16.3002L146.2 16.3002L147.2 16.3002L147.2 1.60017L146.2 1.60017ZM146.2 16.3002L145.474 15.6124L134.674 27.0124L135.4 27.7002L136.126 28.3879L146.926 16.9879L146.2 16.3002ZM146.2 139.3L146.239 138.301L123.139 137.401L123.1 138.4L123.061 139.399L146.161 140.299L146.2 139.3ZM123.1 138.4L124.1 138.4L124.1 6.40018L123.1 6.40018L122.1 6.40018L122.1 138.4L123.1 138.4ZM123.1 6.40018L123.1 7.40018L146.2 7.40018L146.2 6.40018L146.2 5.40018L123.1 5.40018L123.1 6.40018ZM146.2 6.40018L145.2 6.40018L145.2 139.3L146.2 139.3L147.2 139.3L147.2 6.40018L146.2 6.40018Z" fill="#C0C0C0" mask="url(#path-1-outside-1_134_424)"/>
</svg>
