<svg width="81" height="31" viewBox="0 0 81 31" fill="none" xmlns="http://www.w3.org/2000/svg">
<g clip-path="url(#clip0_327_1773)">
<rect width="81" height="31" rx="15.5" fill="#FF8989"/>
<path d="M18.147 20.168C17.123 20.168 16.223 19.972 15.447 19.58C14.671 19.188 14.067 18.644 13.635 17.948C13.203 17.244 12.987 16.428 12.987 15.5C12.987 14.572 13.203 13.76 13.635 13.064C14.067 12.36 14.671 11.812 15.447 11.42C16.223 11.028 17.123 10.832 18.147 10.832C19.171 10.832 20.071 11.028 20.847 11.42C21.623 11.812 22.227 12.36 22.659 13.064C23.091 13.76 23.307 14.572 23.307 15.5C23.307 16.428 23.091 17.244 22.659 17.948C22.227 18.644 21.623 19.188 20.847 19.58C20.071 19.972 19.171 20.168 18.147 20.168ZM18.147 18.752C18.875 18.752 19.503 18.62 20.031 18.356C20.559 18.092 20.967 17.716 21.255 17.228C21.551 16.74 21.699 16.164 21.699 15.5C21.699 14.836 21.551 14.26 21.255 13.772C20.967 13.284 20.559 12.908 20.031 12.644C19.503 12.38 18.875 12.248 18.147 12.248C17.427 12.248 16.799 12.38 16.263 12.644C15.735 12.908 15.323 13.284 15.027 13.772C14.739 14.26 14.595 14.836 14.595 15.5C14.595 16.164 14.739 16.74 15.027 17.228C15.323 17.716 15.735 18.092 16.263 18.356C16.799 18.62 17.427 18.752 18.147 18.752ZM26.6967 13.748H28.2567V20H26.6967V13.748ZM23.8767 13.208H31.0767V14.432H23.8767V13.208ZM32.0604 20V13.208H34.3764L37.2324 19.256H36.6204L39.4524 13.208H41.7684V20H40.3044V13.724H40.7124L37.6764 20H36.1524L33.1164 13.748L33.5244 13.736V20H32.0604ZM47.1356 20.168C46.3436 20.168 45.6396 20.02 45.0236 19.724C44.4076 19.42 43.9236 19 43.5716 18.464C43.2196 17.928 43.0436 17.304 43.0436 16.592C43.0436 15.888 43.2076 15.272 43.5356 14.744C43.8716 14.208 44.3316 13.792 44.9156 13.496C45.5076 13.192 46.1836 13.04 46.9436 13.04C47.7036 13.04 48.3596 13.212 48.9116 13.556C49.4716 13.892 49.9036 14.368 50.2076 14.984C50.5116 15.6 50.6636 16.324 50.6636 17.156H44.2676V15.968H49.8836L49.1036 16.412C49.0796 15.964 48.9716 15.58 48.7796 15.26C48.5956 14.94 48.3436 14.696 48.0236 14.528C47.7116 14.352 47.3396 14.264 46.9076 14.264C46.4516 14.264 46.0516 14.356 45.7076 14.54C45.3716 14.724 45.1076 14.984 44.9156 15.32C44.7236 15.648 44.6276 16.04 44.6276 16.496C44.6276 17 44.7396 17.436 44.9636 17.804C45.1956 18.172 45.5196 18.456 45.9356 18.656C46.3596 18.848 46.8596 18.944 47.4356 18.944C47.9556 18.944 48.4876 18.864 49.0316 18.704C49.5756 18.536 50.0556 18.304 50.4716 18.008V19.136C50.0556 19.456 49.5476 19.708 48.9476 19.892C48.3556 20.076 47.7516 20.168 47.1356 20.168ZM51.9471 13.208H53.4951V20H51.9471V13.208ZM57.7191 13.208H59.2671V20H57.7191V13.208ZM52.8231 15.956H58.3671V17.156H52.8231V15.956ZM67.2597 20L66.9957 17.48L67.3077 16.604L66.9957 15.74L67.2597 13.208H68.8677L68.5077 16.604L68.8677 20H67.2597ZM67.7397 16.604C67.5877 17.316 67.3357 17.94 66.9837 18.476C66.6317 19.012 66.1957 19.428 65.6757 19.724C65.1637 20.02 64.5917 20.168 63.9597 20.168C63.2957 20.168 62.7077 20.02 62.1957 19.724C61.6837 19.42 61.2837 19 60.9957 18.464C60.7077 17.928 60.5637 17.308 60.5637 16.604C60.5637 15.892 60.7077 15.272 60.9957 14.744C61.2837 14.208 61.6837 13.792 62.1957 13.496C62.7077 13.192 63.2957 13.04 63.9597 13.04C64.5917 13.04 65.1637 13.188 65.6757 13.484C66.1957 13.78 66.6317 14.196 66.9837 14.732C67.3437 15.26 67.5957 15.884 67.7397 16.604ZM62.1477 16.604C62.1477 17.06 62.2397 17.464 62.4237 17.816C62.6157 18.16 62.8757 18.432 63.2037 18.632C63.5317 18.824 63.9077 18.92 64.3317 18.92C64.7637 18.92 65.1637 18.824 65.5317 18.632C65.8997 18.432 66.2237 18.16 66.5037 17.816C66.7917 17.464 67.0197 17.06 67.1877 16.604C67.0197 16.148 66.7917 15.748 66.5037 15.404C66.2237 15.052 65.8997 14.78 65.5317 14.588C65.1637 14.388 64.7637 14.288 64.3317 14.288C63.9077 14.288 63.5317 14.388 63.2037 14.588C62.8757 14.78 62.6157 15.052 62.4237 15.404C62.2397 15.748 62.1477 16.148 62.1477 16.604Z" fill="black"/>
</g>
<defs>
<clipPath id="clip0_327_1773">
<rect width="81" height="31" rx="15.5" fill="white"/>
</clipPath>
</defs>
</svg>
