<svg width="398" height="23" viewBox="0 0 398 23" fill="none" xmlns="http://www.w3.org/2000/svg">
<path d="M8.75996 2.49H14.43V22.5H8.75996V2.49ZM-3.90299e-05 -1.78814e-06H23.19V5.01H-3.90299e-05V-1.78814e-06ZM30.9625 22.98C28.9225 22.98 27.0925 22.6 25.4725 21.84C23.8725 21.08 22.6125 20.02 21.6925 18.66C20.7725 17.3 20.3125 15.71 20.3125 13.89C20.3125 12.11 20.7525 10.55 21.6325 9.21C22.5125 7.87 23.7225 6.82 25.2625 6.06C26.8225 5.3 28.5825 4.92 30.5425 4.92C32.5425 4.92 34.2625 5.36 35.7025 6.24C37.1425 7.12 38.2525 8.36 39.0325 9.96C39.8125 11.56 40.2025 13.44 40.2025 15.6H24.7825V12.09H37.1425L35.1325 13.35C35.0725 12.41 34.8425 11.62 34.4425 10.98C34.0625 10.32 33.5525 9.82 32.9125 9.48C32.2725 9.12 31.5125 8.94 30.6325 8.94C29.6725 8.94 28.8425 9.13 28.1425 9.51C27.4425 9.89 26.8925 10.42 26.4925 11.1C26.1125 11.78 25.9225 12.57 25.9225 13.47C25.9225 14.61 26.1725 15.58 26.6725 16.38C27.1925 17.18 27.9325 17.79 28.8925 18.21C29.8725 18.63 31.0625 18.84 32.4625 18.84C33.7425 18.84 35.0225 18.67 36.3025 18.33C37.5825 17.97 38.7325 17.47 39.7525 16.83V20.46C38.5925 21.26 37.2625 21.88 35.7625 22.32C34.2825 22.76 32.6825 22.98 30.9625 22.98ZM42.9787 22.5V5.4H51.3187L57.0787 19.53H55.4287L61.0987 5.4H69.4687V22.5H64.2487V7.47H65.2387L58.7887 22.5H53.6287L47.1787 7.53L48.1987 7.47V22.5H42.9787ZM73.0373 5.4H78.5873V22.5H73.0373V5.4ZM87.2873 5.4H92.8373V22.5H87.2873V5.4ZM76.2173 11.7H89.4173V15.87H76.2173V11.7ZM111.956 22.5L111.206 16.29L112.016 13.95L111.206 11.64L111.956 5.4H117.746L116.696 13.95L117.746 22.5H111.956ZM113.336 13.95C113.036 15.77 112.466 17.36 111.626 18.72C110.786 20.06 109.726 21.11 108.446 21.87C107.166 22.61 105.726 22.98 104.126 22.98C102.446 22.98 100.966 22.6 99.6862 21.84C98.4262 21.08 97.4362 20.03 96.7162 18.69C95.9962 17.33 95.6362 15.75 95.6362 13.95C95.6362 12.15 95.9962 10.58 96.7162 9.24C97.4362 7.88 98.4262 6.82 99.6862 6.06C100.966 5.3 102.446 4.92 104.126 4.92C105.726 4.92 107.166 5.3 108.446 6.06C109.726 6.8 110.786 7.84 111.626 9.18C112.486 10.52 113.056 12.11 113.336 13.95ZM101.276 13.95C101.276 14.87 101.466 15.69 101.846 16.41C102.226 17.11 102.746 17.67 103.406 18.09C104.086 18.49 104.866 18.69 105.746 18.69C106.626 18.69 107.456 18.49 108.236 18.09C109.036 17.67 109.736 17.11 110.336 16.41C110.936 15.69 111.386 14.87 111.686 13.95C111.386 13.03 110.936 12.22 110.336 11.52C109.736 10.8 109.036 10.24 108.236 9.84C107.456 9.42 106.626 9.21 105.746 9.21C104.866 9.21 104.086 9.42 103.406 9.84C102.746 10.24 102.226 10.8 101.846 11.52C101.466 12.22 101.276 13.03 101.276 13.95ZM135.338 13.23V16.77H127.058L126.998 16.59C125.678 16.59 124.508 16.37 123.488 15.93C122.488 15.47 121.708 14.82 121.148 13.98C120.588 13.14 120.308 12.17 120.308 11.07C120.308 9.93 120.588 8.94 121.148 8.1C121.708 7.26 122.488 6.6 123.488 6.12C124.508 5.64 125.678 5.4 126.998 5.4H139.358V22.5H133.778V6.81L135.368 9.09H128.378C127.618 9.09 127.018 9.27 126.578 9.63C126.158 9.99 125.948 10.49 125.948 11.13C125.948 11.77 126.158 12.28 126.578 12.66C127.018 13.04 127.618 13.23 128.378 13.23H135.338ZM131.918 14.49L126.158 22.5H119.858L125.888 14.49H131.918ZM154.928 7.32H160.508V22.5H154.928V7.32ZM148.298 5.4H167.168V9.63H148.298V5.4ZM178.589 22.98C176.549 22.98 174.719 22.6 173.099 21.84C171.499 21.08 170.239 20.02 169.319 18.66C168.399 17.3 167.939 15.71 167.939 13.89C167.939 12.11 168.379 10.55 169.259 9.21C170.139 7.87 171.349 6.82 172.889 6.06C174.449 5.3 176.209 4.92 178.169 4.92C180.169 4.92 181.889 5.36 183.329 6.24C184.769 7.12 185.879 8.36 186.659 9.96C187.439 11.56 187.829 13.44 187.829 15.6H172.409V12.09H184.769L182.759 13.35C182.699 12.41 182.469 11.62 182.069 10.98C181.689 10.32 181.179 9.82 180.539 9.48C179.899 9.12 179.139 8.94 178.259 8.94C177.299 8.94 176.469 9.13 175.769 9.51C175.069 9.89 174.519 10.42 174.119 11.1C173.739 11.78 173.549 12.57 173.549 13.47C173.549 14.61 173.799 15.58 174.299 16.38C174.819 17.18 175.559 17.79 176.519 18.21C177.499 18.63 178.689 18.84 180.089 18.84C181.369 18.84 182.649 18.67 183.929 18.33C185.209 17.97 186.359 17.47 187.379 16.83V20.46C186.219 21.26 184.889 21.88 183.389 22.32C181.909 22.76 180.309 22.98 178.589 22.98ZM190.606 22.5V5.4H198.946L204.706 19.53H203.056L208.726 5.4H217.096V22.5H211.876V7.47H212.866L206.416 22.5H201.256L194.806 7.53L195.826 7.47V22.5H190.606ZM236.204 22.5L235.454 16.29L236.264 13.95L235.454 11.64L236.204 5.4H241.994L240.944 13.95L241.994 22.5H236.204ZM237.584 13.95C237.284 15.77 236.714 17.36 235.874 18.72C235.034 20.06 233.974 21.11 232.694 21.87C231.414 22.61 229.974 22.98 228.374 22.98C226.694 22.98 225.214 22.6 223.934 21.84C222.674 21.08 221.684 20.03 220.964 18.69C220.244 17.33 219.884 15.75 219.884 13.95C219.884 12.15 220.244 10.58 220.964 9.24C221.684 7.88 222.674 6.82 223.934 6.06C225.214 5.3 226.694 4.92 228.374 4.92C229.974 4.92 231.414 5.3 232.694 6.06C233.974 6.8 235.034 7.84 235.874 9.18C236.734 10.52 237.304 12.11 237.584 13.95ZM225.524 13.95C225.524 14.87 225.714 15.69 226.094 16.41C226.474 17.11 226.994 17.67 227.654 18.09C228.334 18.49 229.114 18.69 229.994 18.69C230.874 18.69 231.704 18.49 232.484 18.09C233.284 17.67 233.984 17.11 234.584 16.41C235.184 15.69 235.634 14.87 235.934 13.95C235.634 13.03 235.184 12.22 234.584 11.52C233.984 10.8 233.284 10.24 232.484 9.84C231.704 9.42 230.874 9.21 229.994 9.21C229.114 9.21 228.334 9.42 227.654 9.84C226.994 10.24 226.474 10.8 226.094 11.52C225.714 12.22 225.524 13.03 225.524 13.95ZM252.715 22.5V5.4H258.175V19.5L256.915 19.14L266.545 5.4H273.715V22.5H268.225V8.07L269.515 8.46L259.645 22.5H252.715ZM277.295 22.5V5.4H282.845V18.09L281.225 17.52L291.095 5.4H297.035L282.245 22.5H277.295ZM291.215 22.5L286.235 14.13L290.375 11.1L297.545 22.5H291.215ZM308.056 22.98C305.896 22.98 304.006 22.6 302.386 21.84C300.766 21.08 299.506 20.02 298.606 18.66C297.706 17.3 297.256 15.73 297.256 13.95C297.256 12.15 297.706 10.58 298.606 9.24C299.506 7.88 300.766 6.82 302.386 6.06C304.026 5.3 305.916 4.92 308.056 4.92C310.216 4.92 312.106 5.3 313.726 6.06C315.346 6.82 316.606 7.88 317.506 9.24C318.426 10.58 318.886 12.15 318.886 13.95C318.886 15.75 318.426 17.33 317.506 18.69C316.606 20.03 315.346 21.08 313.726 21.84C312.106 22.6 310.216 22.98 308.056 22.98ZM308.056 18.78C309.156 18.78 310.086 18.59 310.846 18.21C311.626 17.81 312.216 17.25 312.616 16.53C313.036 15.81 313.246 14.95 313.246 13.95C313.246 12.95 313.036 12.09 312.616 11.37C312.216 10.63 311.626 10.07 310.846 9.69C310.086 9.29 309.156 9.09 308.056 9.09C306.996 9.09 306.076 9.29 305.296 9.69C304.516 10.07 303.916 10.63 303.496 11.37C303.076 12.09 302.866 12.95 302.866 13.95C302.866 14.95 303.076 15.81 303.496 16.53C303.916 17.25 304.516 17.81 305.296 18.21C306.076 18.59 306.996 18.78 308.056 18.78ZM321.651 5.4H327.201V22.5H321.651V5.4ZM335.901 5.4H341.451V22.5H335.901V5.4ZM324.831 11.7H338.031V15.87H324.831V11.7ZM345.029 22.5V5.4H350.579V18.09L348.959 17.52L358.829 5.4H364.769L349.979 22.5H345.029ZM358.949 22.5L353.969 14.13L358.109 11.1L365.279 22.5H358.949ZM366.856 22.5V5.4H372.316V19.5L371.056 19.14L380.686 5.4H387.856V22.5H382.366V8.07L383.656 8.46L373.786 22.5H366.856ZM394.436 22.8C393.496 22.8 392.726 22.51 392.126 21.93C391.546 21.35 391.256 20.62 391.256 19.74C391.256 18.86 391.546 18.14 392.126 17.58C392.726 17 393.496 16.71 394.436 16.71C395.356 16.71 396.106 17 396.686 17.58C397.286 18.14 397.586 18.86 397.586 19.74C397.586 20.62 397.286 21.35 396.686 21.93C396.106 22.51 395.356 22.8 394.436 22.8ZM394.436 12.36C393.496 12.36 392.726 12.08 392.126 11.52C391.546 10.94 391.256 10.21 391.256 9.33C391.256 8.45 391.546 7.73 392.126 7.17C392.726 6.59 393.496 6.3 394.436 6.3C395.356 6.3 396.106 6.59 396.686 7.17C397.286 7.73 397.586 8.45 397.586 9.33C397.586 10.21 397.286 10.94 396.686 11.52C396.106 12.08 395.356 12.36 394.436 12.36Z" fill="black"/>
</svg>
